<mxfile host="app.diagrams.net" agent="Mozilla/5.0 (Windows NT 10.0; Win64; x64) AppleWebKit/537.36 (KHTML, like Gecko) Chrome/128.0.0.0 Safari/537.36" version="24.7.12">
  <diagram id="6a731a19-8d31-9384-78a2-239565b7b9f0" name="Page-1">
    <mxGraphModel dx="879" dy="3274" grid="1" gridSize="10" guides="1" tooltips="1" connect="1" arrows="1" fold="1" page="1" pageScale="1" pageWidth="827" pageHeight="1169" background="none" math="0" shadow="0">
      <root>
        <mxCell id="0" />
        <mxCell id="1" parent="0" />
        <mxCell id="ppVQWipgP5uERmSSBe8D-2267" value="" style="rounded=1;whiteSpace=wrap;html=1;fillColor=none;dashed=1;" vertex="1" parent="1">
          <mxGeometry x="515.67" y="-403" width="102.57" height="320" as="geometry" />
        </mxCell>
        <mxCell id="ppVQWipgP5uERmSSBe8D-2266" value="" style="rounded=1;whiteSpace=wrap;html=1;fillColor=none;dashed=1;" vertex="1" parent="1">
          <mxGeometry x="394.71" y="-403" width="102.57" height="320" as="geometry" />
        </mxCell>
        <mxCell id="ppVQWipgP5uERmSSBe8D-2264" value="" style="rounded=1;whiteSpace=wrap;html=1;fillColor=none;dashed=1;" vertex="1" parent="1">
          <mxGeometry x="377.43" y="-203.5" width="250" height="90" as="geometry" />
        </mxCell>
        <mxCell id="ppVQWipgP5uERmSSBe8D-2263" value="" style="rounded=1;whiteSpace=wrap;html=1;fillColor=none;dashed=1;" vertex="1" parent="1">
          <mxGeometry x="380" y="-394" width="250" height="90" as="geometry" />
        </mxCell>
        <mxCell id="ppVQWipgP5uERmSSBe8D-2265" value="" style="rounded=1;whiteSpace=wrap;html=1;fillColor=none;dashed=1;" vertex="1" parent="1">
          <mxGeometry x="377.43" y="-300" width="250" height="90" as="geometry" />
        </mxCell>
        <mxCell id="2086" value="" style="rounded=1;whiteSpace=wrap;html=1;strokeColor=none;fillColor=#BAC8D3;fontSize=24;fontColor=#23445D;align=center;opacity=60;" parent="1" vertex="1">
          <mxGeometry x="715" y="420" width="160" height="260" as="geometry" />
        </mxCell>
        <mxCell id="2087" value="&lt;font color=&quot;#23445d&quot;&gt;WAN&lt;/font&gt;" style="rounded=1;whiteSpace=wrap;html=1;strokeColor=none;fillColor=none;fontSize=14;fontColor=#742B21;align=center;fontStyle=1" parent="1" vertex="1">
          <mxGeometry x="759" y="434" width="73" height="19" as="geometry" />
        </mxCell>
        <mxCell id="2088" value="" style="rounded=1;whiteSpace=wrap;html=1;strokeColor=none;fillColor=#BAC8D3;fontSize=24;fontColor=#23445D;align=center;opacity=60;" parent="1" vertex="1">
          <mxGeometry x="1354" y="769" width="260" height="247" as="geometry" />
        </mxCell>
        <mxCell id="2089" value="" style="rounded=1;whiteSpace=wrap;html=1;strokeColor=none;fillColor=#BAC8D3;fontSize=24;fontColor=#23445D;align=center;opacity=60;" parent="1" vertex="1">
          <mxGeometry x="650" y="760" width="273" height="380" as="geometry" />
        </mxCell>
        <mxCell id="2090" value="" style="rounded=1;whiteSpace=wrap;html=1;strokeColor=none;fillColor=#BAC8D3;fontSize=24;fontColor=#23445D;align=center;opacity=60;" parent="1" vertex="1">
          <mxGeometry x="1403" y="420" width="160" height="260" as="geometry" />
        </mxCell>
        <mxCell id="2091" value="" style="rounded=1;whiteSpace=wrap;html=1;strokeColor=none;fillColor=#BAC8D3;fontSize=24;fontColor=#23445D;align=center;opacity=60;" parent="1" vertex="1">
          <mxGeometry x="1123" y="525" width="160" height="615" as="geometry" />
        </mxCell>
        <mxCell id="2092" value="" style="rounded=1;whiteSpace=wrap;html=1;strokeColor=none;fillColor=#BAC8D3;fontSize=24;fontColor=#23445D;align=center;opacity=60;" parent="1" vertex="1">
          <mxGeometry x="350" y="680" width="260" height="300" as="geometry" />
        </mxCell>
        <mxCell id="2093" value="" style="rounded=1;whiteSpace=wrap;html=1;strokeColor=none;fillColor=#BAC8D3;fontSize=24;fontColor=#23445D;align=center;opacity=60;" parent="1" vertex="1">
          <mxGeometry x="28" y="529" width="290" height="631" as="geometry" />
        </mxCell>
        <mxCell id="2094" value="" style="rounded=1;whiteSpace=wrap;html=1;strokeColor=none;fillColor=#BAC8D3;fontSize=24;fontColor=#23445D;align=center;opacity=60;" parent="1" vertex="1">
          <mxGeometry x="1160" y="30" width="450" height="210" as="geometry" />
        </mxCell>
        <mxCell id="2095" value="" style="rounded=1;whiteSpace=wrap;html=1;strokeColor=none;fillColor=#BAC8D3;fontSize=24;fontColor=#23445D;align=center;opacity=60;" parent="1" vertex="1">
          <mxGeometry x="30" y="30" width="690" height="200" as="geometry" />
        </mxCell>
        <mxCell id="2096" value="" style="shape=mxgraph.cisco.computers_and_peripherals.workstation;html=1;dashed=0;fillColor=#10739E;strokeColor=#ffffff;strokeWidth=2;verticalLabelPosition=bottom;verticalAlign=top;fontFamily=Helvetica;fontSize=36;fontColor=#FFB366" parent="1" vertex="1">
          <mxGeometry x="60" y="95" width="83" height="62" as="geometry" />
        </mxCell>
        <mxCell id="2097" value="" style="shape=mxgraph.cisco.servers.fileserver;html=1;dashed=0;fillColor=#10739E;strokeColor=#ffffff;strokeWidth=2;verticalLabelPosition=bottom;verticalAlign=top;fontFamily=Helvetica;fontSize=36;fontColor=#FFB366" parent="1" vertex="1">
          <mxGeometry x="178" y="94" width="43" height="62" as="geometry" />
        </mxCell>
        <mxCell id="2098" value="" style="shape=mxgraph.cisco.servers.fileserver;html=1;dashed=0;fillColor=#10739E;strokeColor=#ffffff;strokeWidth=2;verticalLabelPosition=bottom;verticalAlign=top;fontFamily=Helvetica;fontSize=36;fontColor=#FFB366" parent="1" vertex="1">
          <mxGeometry x="382" y="94" width="43" height="62" as="geometry" />
        </mxCell>
        <mxCell id="2099" value="" style="shape=mxgraph.cisco.servers.file_server;html=1;dashed=0;fillColor=#10739E;strokeColor=#ffffff;strokeWidth=2;verticalLabelPosition=bottom;verticalAlign=top;fontFamily=Helvetica;fontSize=36;fontColor=#FFB366" parent="1" vertex="1">
          <mxGeometry x="316" y="99" width="43" height="58" as="geometry" />
        </mxCell>
        <mxCell id="2100" value="" style="shape=mxgraph.cisco.servers.storage_server;html=1;dashed=0;fillColor=#10739E;strokeColor=#ffffff;strokeWidth=2;verticalLabelPosition=bottom;verticalAlign=top;fontFamily=Helvetica;fontSize=36;fontColor=#FFB366" parent="1" vertex="1">
          <mxGeometry x="240" y="73" width="54" height="83" as="geometry" />
        </mxCell>
        <mxCell id="2101" value="" style="shape=mxgraph.cisco.computers_and_peripherals.ibm_mini_as400;html=1;dashed=0;fillColor=#10739E;strokeColor=#ffffff;strokeWidth=2;verticalLabelPosition=bottom;verticalAlign=top;fontFamily=Helvetica;fontSize=36;fontColor=#FFB366" parent="1" vertex="1">
          <mxGeometry x="439" y="95" width="43" height="62" as="geometry" />
        </mxCell>
        <mxCell id="2102" value="" style="shape=mxgraph.cisco.computers_and_peripherals.ibm_mainframe;html=1;dashed=0;fillColor=#10739E;strokeColor=#ffffff;strokeWidth=2;verticalLabelPosition=bottom;verticalAlign=top;fontFamily=Helvetica;fontSize=36;fontColor=#FFB366" parent="1" vertex="1">
          <mxGeometry x="508" y="87" width="50" height="70" as="geometry" />
        </mxCell>
        <mxCell id="2103" value="" style="shape=mxgraph.cisco.servers.fileserver;html=1;dashed=0;fillColor=#10739E;strokeColor=#ffffff;strokeWidth=2;verticalLabelPosition=bottom;verticalAlign=top;fontFamily=Helvetica;fontSize=36;fontColor=#FFB366" parent="1" vertex="1">
          <mxGeometry x="1240" y="97" width="43" height="62" as="geometry" />
        </mxCell>
        <mxCell id="2104" value="" style="shape=mxgraph.cisco.servers.fileserver;html=1;dashed=0;fillColor=#10739E;strokeColor=#ffffff;strokeWidth=2;verticalLabelPosition=bottom;verticalAlign=top;fontFamily=Helvetica;fontSize=36;fontColor=#FFB366" parent="1" vertex="1">
          <mxGeometry x="1310" y="97" width="43" height="62" as="geometry" />
        </mxCell>
        <mxCell id="2105" value="" style="shape=mxgraph.cisco.computers_and_peripherals.ibm_mainframe;html=1;dashed=0;fillColor=#10739E;strokeColor=#ffffff;strokeWidth=2;verticalLabelPosition=bottom;verticalAlign=top;fontFamily=Helvetica;fontSize=36;fontColor=#FFB366" parent="1" vertex="1">
          <mxGeometry x="1390" y="93" width="50" height="70" as="geometry" />
        </mxCell>
        <mxCell id="2106" value="" style="shape=mxgraph.cisco.servers.storage_server;html=1;dashed=0;fillColor=#10739E;strokeColor=#ffffff;strokeWidth=2;verticalLabelPosition=bottom;verticalAlign=top;fontFamily=Helvetica;fontSize=36;fontColor=#FFB366" parent="1" vertex="1">
          <mxGeometry x="1470" y="81" width="54" height="83" as="geometry" />
        </mxCell>
        <mxCell id="2107" value="" style="shape=mxgraph.cisco.switches.workgroup_switch;html=1;dashed=0;fillColor=#10739E;strokeColor=#ffffff;strokeWidth=2;verticalLabelPosition=bottom;verticalAlign=top;fontFamily=Helvetica;fontSize=36;fontColor=#FFB366" parent="1" vertex="1">
          <mxGeometry x="416" y="252" width="101" height="50" as="geometry" />
        </mxCell>
        <mxCell id="2108" value="" style="shape=mxgraph.cisco.security.pix_firewall;html=1;dashed=0;fillColor=#10739E;strokeColor=#ffffff;strokeWidth=2;verticalLabelPosition=bottom;verticalAlign=top;fontFamily=Helvetica;fontSize=36;fontColor=#FFB366" parent="1" vertex="1">
          <mxGeometry x="1206" y="252" width="77" height="51" as="geometry" />
        </mxCell>
        <mxCell id="2109" value="Internet" style="shape=mxgraph.cisco.storage.cloud;html=1;dashed=0;strokeColor=#23445D;fillColor=#ffffff;strokeWidth=2;fontFamily=Helvetica;fontSize=24;fontColor=#23445D;align=center;fontStyle=1" parent="1" vertex="1">
          <mxGeometry x="803" y="16" width="186" height="106" as="geometry" />
        </mxCell>
        <mxCell id="2110" value="PSTN" style="shape=mxgraph.cisco.storage.cloud;html=1;dashed=0;strokeColor=#23445D;fillColor=#ffffff;strokeWidth=2;fontFamily=Helvetica;fontSize=24;fontColor=#23445D;fontStyle=1" parent="1" vertex="1">
          <mxGeometry x="813" y="196" width="186" height="106" as="geometry" />
        </mxCell>
        <mxCell id="2111" value="" style="shape=mxgraph.cisco.servers.communications_server;html=1;dashed=0;fillColor=#10739E;strokeColor=#ffffff;strokeWidth=2;verticalLabelPosition=bottom;verticalAlign=top;fontFamily=Helvetica;fontSize=36;fontColor=#FFB366" parent="1" vertex="1">
          <mxGeometry x="1020" y="246" width="54" height="56" as="geometry" />
        </mxCell>
        <mxCell id="2112" value="" style="shape=mxgraph.cisco.switches.layer_3_switch;html=1;dashed=0;fillColor=#10739E;strokeColor=#ffffff;strokeWidth=2;verticalLabelPosition=bottom;verticalAlign=top;fontFamily=Helvetica;fontSize=36;fontColor=#FFB366" parent="1" vertex="1">
          <mxGeometry x="631" y="370" width="64" height="64" as="geometry" />
        </mxCell>
        <mxCell id="2113" value="" style="shape=mxgraph.cisco.switches.layer_3_switch;html=1;dashed=0;fillColor=#10739E;strokeColor=#ffffff;strokeWidth=2;verticalLabelPosition=bottom;verticalAlign=top;fontFamily=Helvetica;fontSize=36;fontColor=#FFB366" parent="1" vertex="1">
          <mxGeometry x="1240" y="370" width="64" height="64" as="geometry" />
        </mxCell>
        <mxCell id="2114" value="" style="shape=mxgraph.cisco.switches.workgroup_switch;html=1;dashed=0;fillColor=#10739E;strokeColor=#ffffff;strokeWidth=2;verticalLabelPosition=bottom;verticalAlign=top;fontFamily=Helvetica;fontSize=36;fontColor=#FFB366" parent="1" vertex="1">
          <mxGeometry x="142" y="464" width="101" height="50" as="geometry" />
        </mxCell>
        <mxCell id="2115" value="" style="shape=mxgraph.cisco.switches.workgroup_switch;html=1;dashed=0;fillColor=#10739E;strokeColor=#ffffff;strokeWidth=2;verticalLabelPosition=bottom;verticalAlign=top;fontFamily=Helvetica;fontSize=36;fontColor=#FFB366" parent="1" vertex="1">
          <mxGeometry x="958" y="460" width="101" height="50" as="geometry" />
        </mxCell>
        <mxCell id="2116" value="" style="shape=mxgraph.cisco.switches.workgroup_switch;html=1;dashed=0;fillColor=#10739E;strokeColor=#ffffff;strokeWidth=2;verticalLabelPosition=bottom;verticalAlign=top;fontFamily=Helvetica;fontSize=36;fontColor=#FFB366" parent="1" vertex="1">
          <mxGeometry x="500" y="476" width="101" height="50" as="geometry" />
        </mxCell>
        <mxCell id="2117" value="" style="shape=mxgraph.cisco.switches.workgroup_switch;html=1;dashed=0;fillColor=#10739E;strokeColor=#ffffff;strokeWidth=2;verticalLabelPosition=bottom;verticalAlign=top;fontFamily=Helvetica;fontSize=36;fontColor=#FFB366" parent="1" vertex="1">
          <mxGeometry x="1209" y="460" width="101" height="50" as="geometry" />
        </mxCell>
        <mxCell id="2118" value="" style="shape=mxgraph.cisco.switches.workgroup_switch;html=1;dashed=0;fillColor=#10739E;strokeColor=#ffffff;strokeWidth=2;verticalLabelPosition=bottom;verticalAlign=top;fontFamily=Helvetica;fontSize=36;fontColor=#FFB366" parent="1" vertex="1">
          <mxGeometry x="361" y="696" width="101" height="50" as="geometry" />
        </mxCell>
        <mxCell id="2119" value="" style="shape=mxgraph.cisco.switches.workgroup_switch;html=1;dashed=0;fillColor=#10739E;strokeColor=#ffffff;strokeWidth=2;verticalLabelPosition=bottom;verticalAlign=top;fontFamily=Helvetica;fontSize=36;fontColor=#FFB366" parent="1" vertex="1">
          <mxGeometry x="483" y="854" width="101" height="50" as="geometry" />
        </mxCell>
        <mxCell id="2120" value="" style="shape=mxgraph.cisco.misc.access_point;html=1;dashed=0;fillColor=#10739E;strokeColor=#ffffff;strokeWidth=2;verticalLabelPosition=bottom;verticalAlign=top;fontFamily=Helvetica;fontSize=36;fontColor=#FFB366" parent="1" vertex="1">
          <mxGeometry x="223" y="555" width="75" height="34" as="geometry" />
        </mxCell>
        <mxCell id="2121" value="" style="shape=mxgraph.cisco.misc.access_point;html=1;dashed=0;fillColor=#10739E;strokeColor=#ffffff;strokeWidth=2;verticalLabelPosition=bottom;verticalAlign=top;fontFamily=Helvetica;fontSize=36;fontColor=#FFB366" parent="1" vertex="1">
          <mxGeometry x="223" y="623" width="75" height="34" as="geometry" />
        </mxCell>
        <mxCell id="2122" value="" style="shape=mxgraph.cisco.misc.access_point;html=1;dashed=0;fillColor=#10739E;strokeColor=#ffffff;strokeWidth=2;verticalLabelPosition=bottom;verticalAlign=top;fontFamily=Helvetica;fontSize=36;fontColor=#FFB366" parent="1" vertex="1">
          <mxGeometry x="223" y="852" width="75" height="34" as="geometry" />
        </mxCell>
        <mxCell id="2123" value="" style="shape=mxgraph.cisco.misc.access_point;html=1;dashed=0;fillColor=#10739E;strokeColor=#ffffff;strokeWidth=2;verticalLabelPosition=bottom;verticalAlign=top;fontFamily=Helvetica;fontSize=36;fontColor=#FFB366" parent="1" vertex="1">
          <mxGeometry x="223" y="705" width="75" height="34" as="geometry" />
        </mxCell>
        <mxCell id="2124" value="" style="shape=mxgraph.cisco.misc.access_point;html=1;dashed=0;fillColor=#10739E;strokeColor=#ffffff;strokeWidth=2;verticalLabelPosition=bottom;verticalAlign=top;fontFamily=Helvetica;fontSize=36;fontColor=#FFB366" parent="1" vertex="1">
          <mxGeometry x="223" y="930" width="75" height="34" as="geometry" />
        </mxCell>
        <mxCell id="2125" value="" style="shape=mxgraph.cisco.misc.access_point;html=1;dashed=0;fillColor=#10739E;strokeColor=#ffffff;strokeWidth=2;verticalLabelPosition=bottom;verticalAlign=top;fontFamily=Helvetica;fontSize=36;fontColor=#FFB366" parent="1" vertex="1">
          <mxGeometry x="223" y="779" width="75" height="34" as="geometry" />
        </mxCell>
        <mxCell id="2126" value="" style="shape=mxgraph.cisco.hubs_and_gateways.100baset_hub;html=1;dashed=0;fillColor=#10739E;strokeColor=#ffffff;strokeWidth=2;verticalLabelPosition=bottom;verticalAlign=top;fontFamily=Helvetica;fontSize=36;fontColor=#FFB366" parent="1" vertex="1">
          <mxGeometry x="59" y="544" width="90" height="45" as="geometry" />
        </mxCell>
        <mxCell id="2127" value="" style="shape=mxgraph.cisco.hubs_and_gateways.100baset_hub;html=1;dashed=0;fillColor=#10739E;strokeColor=#ffffff;strokeWidth=2;verticalLabelPosition=bottom;verticalAlign=top;fontFamily=Helvetica;fontSize=36;fontColor=#FFB366" parent="1" vertex="1">
          <mxGeometry x="59" y="841" width="90" height="45" as="geometry" />
        </mxCell>
        <mxCell id="2128" value="" style="shape=mxgraph.cisco.hubs_and_gateways.100baset_hub;html=1;dashed=0;fillColor=#10739E;strokeColor=#ffffff;strokeWidth=2;verticalLabelPosition=bottom;verticalAlign=top;fontFamily=Helvetica;fontSize=36;fontColor=#FFB366" parent="1" vertex="1">
          <mxGeometry x="59" y="615" width="90" height="45" as="geometry" />
        </mxCell>
        <mxCell id="2129" value="" style="shape=mxgraph.cisco.hubs_and_gateways.100baset_hub;html=1;dashed=0;fillColor=#10739E;strokeColor=#ffffff;strokeWidth=2;verticalLabelPosition=bottom;verticalAlign=top;fontFamily=Helvetica;fontSize=36;fontColor=#FFB366" parent="1" vertex="1">
          <mxGeometry x="59" y="694" width="90" height="45" as="geometry" />
        </mxCell>
        <mxCell id="2130" value="" style="shape=mxgraph.cisco.hubs_and_gateways.100baset_hub;html=1;dashed=0;fillColor=#10739E;strokeColor=#ffffff;strokeWidth=2;verticalLabelPosition=bottom;verticalAlign=top;fontFamily=Helvetica;fontSize=36;fontColor=#FFB366" parent="1" vertex="1">
          <mxGeometry x="59" y="768" width="90" height="45" as="geometry" />
        </mxCell>
        <mxCell id="2131" value="" style="shape=mxgraph.cisco.misc.token;html=1;dashed=0;strokeColor=#10739E;fillColor=#ffffff;strokeWidth=2;verticalLabelPosition=bottom;verticalAlign=top;fontFamily=Helvetica;fontSize=36;fontColor=#23445D;labelBackgroundColor=none;" parent="1" vertex="1">
          <mxGeometry x="977" y="537" width="59" height="61" as="geometry" />
        </mxCell>
        <mxCell id="2132" value="" style="shape=mxgraph.cisco.routers.router;html=1;dashed=0;fillColor=#10739E;strokeColor=#ffffff;strokeWidth=2;verticalLabelPosition=bottom;verticalAlign=top;fontFamily=Helvetica;fontSize=36;fontColor=#FFB366" parent="1" vertex="1">
          <mxGeometry x="757" y="475" width="78" height="53" as="geometry" />
        </mxCell>
        <mxCell id="2133" value="" style="shape=mxgraph.cisco.routers.router;html=1;dashed=0;fillColor=#10739E;strokeColor=#ffffff;strokeWidth=2;verticalLabelPosition=bottom;verticalAlign=top;fontFamily=Helvetica;fontSize=36;fontColor=#FFB366" parent="1" vertex="1">
          <mxGeometry x="1444" y="476" width="78" height="53" as="geometry" />
        </mxCell>
        <mxCell id="2134" value="" style="shape=mxgraph.cisco.routers.router;html=1;dashed=0;fillColor=#10739E;strokeColor=#ffffff;strokeWidth=2;verticalLabelPosition=bottom;verticalAlign=top;fontFamily=Helvetica;fontSize=36;fontColor=#FFB366" parent="1" vertex="1">
          <mxGeometry x="757" y="594" width="78" height="53" as="geometry" />
        </mxCell>
        <mxCell id="2135" value="" style="shape=mxgraph.cisco.routers.router;html=1;dashed=0;fillColor=#10739E;strokeColor=#ffffff;strokeWidth=2;verticalLabelPosition=bottom;verticalAlign=top;fontFamily=Helvetica;fontSize=36;fontColor=#FFB366" parent="1" vertex="1">
          <mxGeometry x="1443" y="595" width="78" height="53" as="geometry" />
        </mxCell>
        <mxCell id="2136" value="" style="shape=mxgraph.cisco.switches.workgroup_switch;html=1;dashed=0;fillColor=#10739E;strokeColor=#ffffff;strokeWidth=2;verticalLabelPosition=bottom;verticalAlign=top;fontFamily=Helvetica;fontSize=36;fontColor=#FFB366" parent="1" vertex="1">
          <mxGeometry x="745" y="694" width="101" height="50" as="geometry" />
        </mxCell>
        <mxCell id="2137" value="" style="shape=mxgraph.cisco.switches.workgroup_switch;html=1;dashed=0;fillColor=#10739E;strokeColor=#ffffff;strokeWidth=2;verticalLabelPosition=bottom;verticalAlign=top;fontFamily=Helvetica;fontSize=36;fontColor=#FFB366" parent="1" vertex="1">
          <mxGeometry x="1432" y="691" width="101" height="50" as="geometry" />
        </mxCell>
        <mxCell id="2138" value="" style="shape=mxgraph.cisco.routers.router;html=1;dashed=0;fillColor=#10739E;strokeColor=#ffffff;strokeWidth=2;verticalLabelPosition=bottom;verticalAlign=top;fontFamily=Helvetica;fontSize=36;fontColor=#FFB366" parent="1" vertex="1">
          <mxGeometry x="1020" y="122" width="78" height="53" as="geometry" />
        </mxCell>
        <mxCell id="2139" value="" style="shape=mxgraph.cisco.hubs_and_gateways.100baset_hub;html=1;dashed=0;fillColor=#10739E;strokeColor=#ffffff;strokeWidth=2;verticalLabelPosition=bottom;verticalAlign=top;fontFamily=Helvetica;fontSize=36;fontColor=#FFB366" parent="1" vertex="1">
          <mxGeometry x="59" y="919" width="90" height="45" as="geometry" />
        </mxCell>
        <mxCell id="2140" value="" style="shape=mxgraph.cisco.hubs_and_gateways.100baset_hub;html=1;dashed=0;fillColor=#10739E;strokeColor=#ffffff;strokeWidth=2;verticalLabelPosition=bottom;verticalAlign=top;fontFamily=Helvetica;fontSize=36;fontColor=#FFB366" parent="1" vertex="1">
          <mxGeometry x="1137" y="548" width="90" height="45" as="geometry" />
        </mxCell>
        <mxCell id="2141" value="" style="shape=mxgraph.cisco.hubs_and_gateways.100baset_hub;html=1;dashed=0;fillColor=#10739E;strokeColor=#ffffff;strokeWidth=2;verticalLabelPosition=bottom;verticalAlign=top;fontFamily=Helvetica;fontSize=36;fontColor=#FFB366" parent="1" vertex="1">
          <mxGeometry x="1137" y="845" width="90" height="45" as="geometry" />
        </mxCell>
        <mxCell id="2142" value="" style="shape=mxgraph.cisco.hubs_and_gateways.100baset_hub;html=1;dashed=0;fillColor=#10739E;strokeColor=#ffffff;strokeWidth=2;verticalLabelPosition=bottom;verticalAlign=top;fontFamily=Helvetica;fontSize=36;fontColor=#FFB366" parent="1" vertex="1">
          <mxGeometry x="1137" y="619" width="90" height="45" as="geometry" />
        </mxCell>
        <mxCell id="2143" value="" style="shape=mxgraph.cisco.hubs_and_gateways.100baset_hub;html=1;dashed=0;fillColor=#10739E;strokeColor=#ffffff;strokeWidth=2;verticalLabelPosition=bottom;verticalAlign=top;fontFamily=Helvetica;fontSize=36;fontColor=#FFB366" parent="1" vertex="1">
          <mxGeometry x="1137" y="698" width="90" height="45" as="geometry" />
        </mxCell>
        <mxCell id="2144" value="" style="shape=mxgraph.cisco.hubs_and_gateways.100baset_hub;html=1;dashed=0;fillColor=#10739E;strokeColor=#ffffff;strokeWidth=2;verticalLabelPosition=bottom;verticalAlign=top;fontFamily=Helvetica;fontSize=36;fontColor=#FFB366" parent="1" vertex="1">
          <mxGeometry x="1137" y="772" width="90" height="45" as="geometry" />
        </mxCell>
        <mxCell id="2145" value="" style="shape=mxgraph.cisco.hubs_and_gateways.100baset_hub;html=1;dashed=0;fillColor=#10739E;strokeColor=#ffffff;strokeWidth=2;verticalLabelPosition=bottom;verticalAlign=top;fontFamily=Helvetica;fontSize=36;fontColor=#FFB366" parent="1" vertex="1">
          <mxGeometry x="1137" y="915" width="90" height="45" as="geometry" />
        </mxCell>
        <mxCell id="2146" value="" style="shape=mxgraph.cisco.hubs_and_gateways.100baset_hub;html=1;dashed=0;fillColor=#10739E;strokeColor=#ffffff;strokeWidth=2;verticalLabelPosition=bottom;verticalAlign=top;fontFamily=Helvetica;fontSize=36;fontColor=#FFB366" parent="1" vertex="1">
          <mxGeometry x="673" y="853" width="90" height="45" as="geometry" />
        </mxCell>
        <mxCell id="2147" value="" style="shape=mxgraph.cisco.hubs_and_gateways.100baset_hub;html=1;dashed=0;fillColor=#10739E;strokeColor=#ffffff;strokeWidth=2;verticalLabelPosition=bottom;verticalAlign=top;fontFamily=Helvetica;fontSize=36;fontColor=#FFB366" parent="1" vertex="1">
          <mxGeometry x="673" y="780" width="90" height="45" as="geometry" />
        </mxCell>
        <mxCell id="2148" value="" style="shape=mxgraph.cisco.hubs_and_gateways.100baset_hub;html=1;dashed=0;fillColor=#10739E;strokeColor=#ffffff;strokeWidth=2;verticalLabelPosition=bottom;verticalAlign=top;fontFamily=Helvetica;fontSize=36;fontColor=#FFB366" parent="1" vertex="1">
          <mxGeometry x="673" y="923" width="90" height="45" as="geometry" />
        </mxCell>
        <mxCell id="2149" value="" style="shape=mxgraph.cisco.misc.access_point;html=1;dashed=0;fillColor=#10739E;strokeColor=#ffffff;strokeWidth=2;verticalLabelPosition=bottom;verticalAlign=top;fontFamily=Helvetica;fontSize=36;fontColor=#FFB366" parent="1" vertex="1">
          <mxGeometry x="817" y="859" width="79" height="34" as="geometry" />
        </mxCell>
        <mxCell id="2150" value="" style="shape=mxgraph.cisco.misc.access_point;html=1;dashed=0;fillColor=#10739E;strokeColor=#ffffff;strokeWidth=2;verticalLabelPosition=bottom;verticalAlign=top;fontFamily=Helvetica;fontSize=36;fontColor=#FFB366" parent="1" vertex="1">
          <mxGeometry x="817" y="933" width="75" height="34" as="geometry" />
        </mxCell>
        <mxCell id="2151" value="" style="shape=mxgraph.cisco.misc.access_point;html=1;dashed=0;fillColor=#10739E;strokeColor=#ffffff;strokeWidth=2;verticalLabelPosition=bottom;verticalAlign=top;fontFamily=Helvetica;fontSize=36;fontColor=#FFB366" parent="1" vertex="1">
          <mxGeometry x="817" y="782" width="75" height="34" as="geometry" />
        </mxCell>
        <mxCell id="2152" value="" style="line;html=1;strokeColor=#23445D;" parent="1" vertex="1">
          <mxGeometry x="53" y="205" width="587" height="10" as="geometry" />
        </mxCell>
        <mxCell id="2153" value="" style="line;html=1;strokeColor=#23445D;" parent="1" vertex="1">
          <mxGeometry x="1192" y="207" width="388" height="10" as="geometry" />
        </mxCell>
        <mxCell id="2154" value="" style="line;html=1;strokeColor=#23445D;" parent="1" vertex="1">
          <mxGeometry x="377" y="340" width="943" height="10" as="geometry" />
        </mxCell>
        <mxCell id="2155" value="" style="edgeStyle=elbowEdgeStyle;elbow=horizontal;endArrow=none;html=1;strokeColor=#23445D;endFill=0;strokeWidth=4;rounded=1" parent="1" target="2102" edge="1">
          <mxGeometry width="100" height="100" relative="1" as="geometry">
            <mxPoint x="533" y="210" as="sourcePoint" />
            <mxPoint x="533" y="170" as="targetPoint" />
          </mxGeometry>
        </mxCell>
        <mxCell id="2156" value="" style="edgeStyle=elbowEdgeStyle;elbow=horizontal;endArrow=none;html=1;strokeColor=#23445D;endFill=0;strokeWidth=4;rounded=1" parent="1" target="2101" edge="1">
          <mxGeometry width="100" height="100" relative="1" as="geometry">
            <mxPoint x="460" y="210" as="sourcePoint" />
            <mxPoint x="460.33333333333337" y="156.94444444444446" as="targetPoint" />
          </mxGeometry>
        </mxCell>
        <mxCell id="2157" value="" style="edgeStyle=elbowEdgeStyle;elbow=horizontal;endArrow=none;html=1;strokeColor=#23445D;endFill=0;strokeWidth=4;rounded=1" parent="1" target="2098" edge="1">
          <mxGeometry width="100" height="100" relative="1" as="geometry">
            <mxPoint x="403" y="209" as="sourcePoint" />
            <mxPoint x="403.33333333333337" y="155.94444444444446" as="targetPoint" />
          </mxGeometry>
        </mxCell>
        <mxCell id="2158" value="" style="edgeStyle=elbowEdgeStyle;elbow=horizontal;endArrow=none;html=1;strokeColor=#23445D;endFill=0;strokeWidth=4;rounded=1" parent="1" target="2099" edge="1">
          <mxGeometry width="100" height="100" relative="1" as="geometry">
            <mxPoint x="337" y="210" as="sourcePoint" />
            <mxPoint x="337.33333333333337" y="156.94444444444446" as="targetPoint" />
          </mxGeometry>
        </mxCell>
        <mxCell id="2159" value="" style="edgeStyle=elbowEdgeStyle;elbow=horizontal;endArrow=none;html=1;strokeColor=#23445D;endFill=0;strokeWidth=4;rounded=1" parent="1" target="2100" edge="1">
          <mxGeometry width="100" height="100" relative="1" as="geometry">
            <mxPoint x="267" y="210" as="sourcePoint" />
            <mxPoint x="266.80555555555554" y="156.94444444444446" as="targetPoint" />
          </mxGeometry>
        </mxCell>
        <mxCell id="2160" value="" style="edgeStyle=elbowEdgeStyle;elbow=horizontal;endArrow=none;html=1;strokeColor=#23445D;endFill=0;strokeWidth=4;rounded=1" parent="1" target="2097" edge="1">
          <mxGeometry width="100" height="100" relative="1" as="geometry">
            <mxPoint x="199" y="210" as="sourcePoint" />
            <mxPoint x="198.80555555555554" y="156.94444444444446" as="targetPoint" />
          </mxGeometry>
        </mxCell>
        <mxCell id="2161" value="" style="edgeStyle=elbowEdgeStyle;elbow=horizontal;endArrow=none;html=1;strokeColor=#23445D;endFill=0;strokeWidth=4;rounded=1" parent="1" target="2096" edge="1">
          <mxGeometry width="100" height="100" relative="1" as="geometry">
            <mxPoint x="96" y="210" as="sourcePoint" />
            <mxPoint x="96.30555555555554" y="156.25" as="targetPoint" />
          </mxGeometry>
        </mxCell>
        <mxCell id="2162" value="" style="edgeStyle=elbowEdgeStyle;elbow=horizontal;endArrow=none;html=1;strokeColor=#23445D;endFill=0;strokeWidth=4;rounded=1" parent="1" target="2107" edge="1">
          <mxGeometry width="100" height="100" relative="1" as="geometry">
            <mxPoint x="465" y="210" as="sourcePoint" />
            <mxPoint x="465" y="240" as="targetPoint" />
          </mxGeometry>
        </mxCell>
        <mxCell id="2163" value="" style="edgeStyle=elbowEdgeStyle;elbow=horizontal;endArrow=none;html=1;strokeColor=#23445D;endFill=0;strokeWidth=4;rounded=1" parent="1" source="2107" edge="1">
          <mxGeometry width="100" height="100" relative="1" as="geometry">
            <mxPoint x="465.0000000000001" y="303" as="sourcePoint" />
            <mxPoint x="465.2777777777774" y="345.0833333333335" as="targetPoint" />
          </mxGeometry>
        </mxCell>
        <mxCell id="2164" value="" style="edgeStyle=elbowEdgeStyle;elbow=horizontal;endArrow=none;html=1;strokeColor=#23445D;endFill=0;strokeWidth=4;rounded=1" parent="1" source="2103" edge="1">
          <mxGeometry width="100" height="100" relative="1" as="geometry">
            <mxPoint x="1259" y="170" as="sourcePoint" />
            <mxPoint x="1259.2777777777774" y="212.08333333333348" as="targetPoint" />
          </mxGeometry>
        </mxCell>
        <mxCell id="2165" value="" style="edgeStyle=elbowEdgeStyle;elbow=horizontal;endArrow=none;html=1;strokeColor=#23445D;endFill=0;strokeWidth=4;rounded=1" parent="1" source="2104" edge="1">
          <mxGeometry width="100" height="100" relative="1" as="geometry">
            <mxPoint x="1331" y="170.00000000000006" as="sourcePoint" />
            <mxPoint x="1331.2777777777783" y="212.08333333333348" as="targetPoint" />
          </mxGeometry>
        </mxCell>
        <mxCell id="2166" value="" style="edgeStyle=elbowEdgeStyle;elbow=horizontal;endArrow=none;html=1;strokeColor=#23445D;endFill=0;strokeWidth=4;rounded=1" parent="1" source="2105" edge="1">
          <mxGeometry width="100" height="100" relative="1" as="geometry">
            <mxPoint x="1415" y="170.00000000000006" as="sourcePoint" />
            <mxPoint x="1415.2777777777774" y="212.08333333333348" as="targetPoint" />
          </mxGeometry>
        </mxCell>
        <mxCell id="2167" value="" style="edgeStyle=elbowEdgeStyle;elbow=horizontal;endArrow=none;html=1;strokeColor=#23445D;endFill=0;strokeWidth=4;rounded=1" parent="1" source="2106" edge="1">
          <mxGeometry width="100" height="100" relative="1" as="geometry">
            <mxPoint x="1500" y="170.00000000000006" as="sourcePoint" />
            <mxPoint x="1500.2777777777774" y="212.08333333333348" as="targetPoint" />
          </mxGeometry>
        </mxCell>
        <mxCell id="2168" value="" style="edgeStyle=elbowEdgeStyle;elbow=horizontal;endArrow=none;html=1;strokeColor=#23445D;endFill=0;strokeWidth=4;rounded=1" parent="1" target="2108" edge="1">
          <mxGeometry width="100" height="100" relative="1" as="geometry">
            <mxPoint x="1244" y="212" as="sourcePoint" />
            <mxPoint x="1244.2777777777778" y="254.08333333333337" as="targetPoint" />
          </mxGeometry>
        </mxCell>
        <mxCell id="2169" value="" style="edgeStyle=elbowEdgeStyle;elbow=horizontal;endArrow=none;html=1;strokeColor=#23445D;endFill=0;strokeWidth=4;rounded=1" parent="1" source="2108" edge="1">
          <mxGeometry width="100" height="100" relative="1" as="geometry">
            <mxPoint x="1244" y="303.00000000000006" as="sourcePoint" />
            <mxPoint x="1244.2777777777774" y="345.0833333333335" as="targetPoint" />
          </mxGeometry>
        </mxCell>
        <mxCell id="2170" value="" style="elbow=horizontal;endArrow=none;html=1;strokeColor=#23445D;endFill=0;strokeWidth=4;rounded=1" parent="1" source="2108" target="2138" edge="1">
          <mxGeometry width="100" height="100" relative="1" as="geometry">
            <mxPoint x="1210" y="198.00000000000006" as="sourcePoint" />
            <mxPoint x="1210.2777777777778" y="240.08333333333337" as="targetPoint" />
          </mxGeometry>
        </mxCell>
        <mxCell id="2171" value="" style="elbow=horizontal;endArrow=none;html=1;strokeColor=#23445D;endFill=0;strokeWidth=4;rounded=1" parent="1" source="2108" target="2111" edge="1">
          <mxGeometry width="100" height="100" relative="1" as="geometry">
            <mxPoint x="1220" y="208.00000000000006" as="sourcePoint" />
            <mxPoint x="1220.2777777777778" y="250.08333333333337" as="targetPoint" />
          </mxGeometry>
        </mxCell>
        <mxCell id="2172" style="edgeStyle=none;rounded=1;html=1;strokeColor=#23445D;endArrow=none;endFill=0;strokeWidth=4" parent="1" source="2112" target="2114" edge="1">
          <mxGeometry relative="1" as="geometry" />
        </mxCell>
        <mxCell id="2173" style="edgeStyle=none;rounded=1;html=1;strokeColor=#23445D;endArrow=none;endFill=0;strokeWidth=4" parent="1" source="2112" target="2116" edge="1">
          <mxGeometry relative="1" as="geometry" />
        </mxCell>
        <mxCell id="2174" style="edgeStyle=none;rounded=1;html=1;strokeColor=#23445D;endArrow=none;endFill=0;strokeWidth=4" parent="1" source="2112" target="2132" edge="1">
          <mxGeometry relative="1" as="geometry">
            <mxPoint x="750" y="380" as="sourcePoint" />
          </mxGeometry>
        </mxCell>
        <mxCell id="2175" style="edgeStyle=none;rounded=1;html=1;strokeColor=#23445D;endArrow=none;endFill=0;strokeWidth=4" parent="1" source="2113" target="2115" edge="1">
          <mxGeometry relative="1" as="geometry" />
        </mxCell>
        <mxCell id="2176" style="edgeStyle=none;rounded=1;html=1;strokeColor=#23445D;endArrow=none;endFill=0;strokeWidth=4" parent="1" source="2113" target="2117" edge="1">
          <mxGeometry relative="1" as="geometry" />
        </mxCell>
        <mxCell id="2177" style="edgeStyle=none;rounded=1;html=1;strokeColor=#23445D;endArrow=none;endFill=0;strokeWidth=4" parent="1" source="2113" target="2133" edge="1">
          <mxGeometry relative="1" as="geometry" />
        </mxCell>
        <mxCell id="2178" value="" style="edgeStyle=elbowEdgeStyle;elbow=horizontal;endArrow=none;html=1;strokeColor=#23445D;endFill=0;strokeWidth=4;rounded=1" parent="1" target="2112" edge="1">
          <mxGeometry width="100" height="100" relative="1" as="geometry">
            <mxPoint x="663" y="345" as="sourcePoint" />
            <mxPoint x="663.2777777777778" y="387.08333333333337" as="targetPoint" />
          </mxGeometry>
        </mxCell>
        <mxCell id="2179" value="" style="edgeStyle=elbowEdgeStyle;elbow=horizontal;endArrow=none;html=1;strokeColor=#23445D;endFill=0;strokeWidth=4;rounded=1" parent="1" target="2113" edge="1">
          <mxGeometry width="100" height="100" relative="1" as="geometry">
            <mxPoint x="1272" y="345" as="sourcePoint" />
            <mxPoint x="1272.2777777777778" y="387.08333333333337" as="targetPoint" />
          </mxGeometry>
        </mxCell>
        <mxCell id="2180" style="edgeStyle=orthogonalEdgeStyle;rounded=1;html=1;strokeColor=#23445D;endArrow=none;endFill=0;strokeWidth=4" parent="1" source="2114" target="2126" edge="1">
          <mxGeometry relative="1" as="geometry">
            <Array as="points">
              <mxPoint x="193" y="559" />
            </Array>
          </mxGeometry>
        </mxCell>
        <mxCell id="2181" style="edgeStyle=orthogonalEdgeStyle;rounded=1;html=1;strokeColor=#23445D;endArrow=none;endFill=0;strokeWidth=4" parent="1" source="2114" target="2128" edge="1">
          <mxGeometry relative="1" as="geometry">
            <Array as="points">
              <mxPoint x="193" y="629" />
            </Array>
          </mxGeometry>
        </mxCell>
        <mxCell id="2182" style="edgeStyle=orthogonalEdgeStyle;rounded=1;html=1;strokeColor=#23445D;endArrow=none;endFill=0;strokeWidth=4" parent="1" source="2114" target="2129" edge="1">
          <mxGeometry relative="1" as="geometry">
            <Array as="points">
              <mxPoint x="193" y="709" />
            </Array>
          </mxGeometry>
        </mxCell>
        <mxCell id="2183" style="edgeStyle=orthogonalEdgeStyle;rounded=1;html=1;strokeColor=#23445D;endArrow=none;endFill=0;strokeWidth=4" parent="1" source="2114" target="2130" edge="1">
          <mxGeometry relative="1" as="geometry">
            <Array as="points">
              <mxPoint x="193" y="779" />
            </Array>
          </mxGeometry>
        </mxCell>
        <mxCell id="2184" style="edgeStyle=orthogonalEdgeStyle;rounded=1;html=1;strokeColor=#23445D;endArrow=none;endFill=0;strokeWidth=4" parent="1" source="2114" target="2120" edge="1">
          <mxGeometry relative="1" as="geometry">
            <Array as="points">
              <mxPoint x="193" y="572" />
            </Array>
          </mxGeometry>
        </mxCell>
        <mxCell id="2185" style="edgeStyle=orthogonalEdgeStyle;rounded=1;html=1;strokeColor=#23445D;endArrow=none;endFill=0;strokeWidth=4" parent="1" source="2114" target="2121" edge="1">
          <mxGeometry relative="1" as="geometry">
            <Array as="points">
              <mxPoint x="193" y="640" />
            </Array>
          </mxGeometry>
        </mxCell>
        <mxCell id="2186" style="edgeStyle=orthogonalEdgeStyle;rounded=1;html=1;strokeColor=#23445D;endArrow=none;endFill=0;strokeWidth=4" parent="1" source="2114" target="2123" edge="1">
          <mxGeometry relative="1" as="geometry">
            <Array as="points">
              <mxPoint x="193" y="722" />
            </Array>
          </mxGeometry>
        </mxCell>
        <mxCell id="2187" style="edgeStyle=orthogonalEdgeStyle;rounded=1;html=1;strokeColor=#23445D;endArrow=none;endFill=0;strokeWidth=4" parent="1" source="2114" target="2125" edge="1">
          <mxGeometry relative="1" as="geometry">
            <Array as="points">
              <mxPoint x="193" y="799" />
            </Array>
          </mxGeometry>
        </mxCell>
        <mxCell id="2188" style="rounded=1;html=1;strokeColor=#23445D;endArrow=none;endFill=0;strokeWidth=4" parent="1" source="2115" target="2131" edge="1">
          <mxGeometry relative="1" as="geometry" />
        </mxCell>
        <mxCell id="2189" style="rounded=1;html=1;strokeColor=#23445D;endArrow=none;endFill=0;strokeWidth=4" parent="1" source="2116" target="2119" edge="1">
          <mxGeometry relative="1" as="geometry" />
        </mxCell>
        <mxCell id="2190" style="rounded=1;html=1;strokeColor=#23445D;endArrow=none;endFill=0;strokeWidth=4" parent="1" source="2116" target="2118" edge="1">
          <mxGeometry relative="1" as="geometry" />
        </mxCell>
        <mxCell id="2191" value="" style="line;html=1;strokeColor=#23445D;" parent="1" vertex="1">
          <mxGeometry x="355" y="925" width="245" height="10" as="geometry" />
        </mxCell>
        <mxCell id="2192" style="rounded=1;html=1;entryX=0.224;entryY=0.5;entryPerimeter=0;strokeColor=#23445D;endArrow=none;endFill=0;strokeWidth=4" parent="1" source="2118" target="2191" edge="1">
          <mxGeometry relative="1" as="geometry" />
        </mxCell>
        <mxCell id="2193" style="edgeStyle=orthogonalEdgeStyle;rounded=1;html=1;entryX=0.714;entryY=0.5;entryPerimeter=0;strokeColor=#23445D;endArrow=none;endFill=0;strokeWidth=4" parent="1" source="2119" edge="1">
          <mxGeometry relative="1" as="geometry">
            <mxPoint x="533" y="837" as="sourcePoint" />
            <mxPoint x="533.666666666667" y="930.3333333333335" as="targetPoint" />
            <Array as="points">
              <mxPoint x="534" y="917" />
              <mxPoint x="533" y="917" />
            </Array>
          </mxGeometry>
        </mxCell>
        <mxCell id="2194" style="edgeStyle=orthogonalEdgeStyle;rounded=1;html=1;strokeColor=#23445D;endArrow=none;endFill=0;strokeWidth=4" parent="1" source="2117" target="2140" edge="1">
          <mxGeometry relative="1" as="geometry">
            <Array as="points">
              <mxPoint x="1260" y="566" />
            </Array>
          </mxGeometry>
        </mxCell>
        <mxCell id="2195" style="edgeStyle=orthogonalEdgeStyle;rounded=1;html=1;strokeColor=#23445D;endArrow=none;endFill=0;strokeWidth=4" parent="1" source="2117" target="2142" edge="1">
          <mxGeometry relative="1" as="geometry">
            <Array as="points">
              <mxPoint x="1260" y="636" />
            </Array>
          </mxGeometry>
        </mxCell>
        <mxCell id="2196" style="edgeStyle=orthogonalEdgeStyle;rounded=1;html=1;strokeColor=#23445D;endArrow=none;endFill=0;strokeWidth=4" parent="1" source="2117" target="2143" edge="1">
          <mxGeometry relative="1" as="geometry">
            <Array as="points">
              <mxPoint x="1260" y="706" />
            </Array>
          </mxGeometry>
        </mxCell>
        <mxCell id="2197" style="edgeStyle=orthogonalEdgeStyle;rounded=1;html=1;strokeColor=#23445D;endArrow=none;endFill=0;strokeWidth=4" parent="1" source="2117" target="2144" edge="1">
          <mxGeometry relative="1" as="geometry">
            <Array as="points">
              <mxPoint x="1260" y="786" />
            </Array>
          </mxGeometry>
        </mxCell>
        <mxCell id="2198" style="edgeStyle=orthogonalEdgeStyle;rounded=1;html=1;strokeColor=#23445D;endArrow=none;endFill=0;strokeWidth=4" parent="1" source="2117" target="2141" edge="1">
          <mxGeometry relative="1" as="geometry">
            <Array as="points">
              <mxPoint x="1260" y="856" />
            </Array>
          </mxGeometry>
        </mxCell>
        <mxCell id="2199" style="edgeStyle=orthogonalEdgeStyle;rounded=1;html=1;strokeColor=#23445D;endArrow=none;endFill=0;strokeWidth=4" parent="1" source="2117" target="2145" edge="1">
          <mxGeometry relative="1" as="geometry">
            <Array as="points">
              <mxPoint x="1260" y="926" />
            </Array>
          </mxGeometry>
        </mxCell>
        <mxCell id="2200" style="rounded=1;html=1;strokeColor=#23445D;endArrow=none;endFill=0;strokeWidth=4" parent="1" source="2132" target="2134" edge="1">
          <mxGeometry relative="1" as="geometry" />
        </mxCell>
        <mxCell id="2201" style="rounded=1;html=1;strokeColor=#23445D;endArrow=none;endFill=0;strokeWidth=4" parent="1" source="2133" target="2135" edge="1">
          <mxGeometry relative="1" as="geometry" />
        </mxCell>
        <mxCell id="2202" style="rounded=1;html=1;strokeColor=#23445D;endArrow=none;endFill=0;strokeWidth=4" parent="1" source="2134" target="2136" edge="1">
          <mxGeometry relative="1" as="geometry" />
        </mxCell>
        <mxCell id="2203" style="edgeStyle=orthogonalEdgeStyle;rounded=1;html=1;strokeColor=#23445D;endArrow=none;endFill=0;strokeWidth=4" parent="1" source="2136" target="2147" edge="1">
          <mxGeometry relative="1" as="geometry">
            <Array as="points">
              <mxPoint x="796" y="799" />
            </Array>
          </mxGeometry>
        </mxCell>
        <mxCell id="2204" style="edgeStyle=orthogonalEdgeStyle;rounded=1;html=1;strokeColor=#23445D;endArrow=none;endFill=0;strokeWidth=4" parent="1" source="2136" target="2146" edge="1">
          <mxGeometry relative="1" as="geometry">
            <Array as="points">
              <mxPoint x="796" y="869" />
            </Array>
          </mxGeometry>
        </mxCell>
        <mxCell id="2205" style="edgeStyle=orthogonalEdgeStyle;rounded=1;html=1;strokeColor=#23445D;endArrow=none;endFill=0;strokeWidth=4" parent="1" source="2136" target="2148" edge="1">
          <mxGeometry relative="1" as="geometry">
            <Array as="points">
              <mxPoint x="796" y="939" />
            </Array>
          </mxGeometry>
        </mxCell>
        <mxCell id="2206" style="edgeStyle=orthogonalEdgeStyle;rounded=1;html=1;strokeColor=#23445D;endArrow=none;endFill=0;strokeWidth=4" parent="1" source="2136" target="2151" edge="1">
          <mxGeometry relative="1" as="geometry">
            <Array as="points">
              <mxPoint x="796" y="799" />
            </Array>
          </mxGeometry>
        </mxCell>
        <mxCell id="2207" style="edgeStyle=orthogonalEdgeStyle;rounded=1;html=1;strokeColor=#23445D;endArrow=none;endFill=0;strokeWidth=4" parent="1" source="2136" target="2149" edge="1">
          <mxGeometry relative="1" as="geometry">
            <Array as="points">
              <mxPoint x="796" y="879" />
            </Array>
          </mxGeometry>
        </mxCell>
        <mxCell id="2208" style="edgeStyle=orthogonalEdgeStyle;rounded=1;html=1;strokeColor=#23445D;endArrow=none;endFill=0;strokeWidth=4" parent="1" source="2136" target="2150" edge="1">
          <mxGeometry relative="1" as="geometry">
            <Array as="points">
              <mxPoint x="796" y="950" />
            </Array>
          </mxGeometry>
        </mxCell>
        <mxCell id="2209" style="edgeStyle=orthogonalEdgeStyle;rounded=1;html=1;strokeColor=#23445D;endArrow=none;endFill=0;strokeWidth=4" parent="1" source="2114" target="2127" edge="1">
          <mxGeometry relative="1" as="geometry">
            <Array as="points">
              <mxPoint x="193" y="859" />
            </Array>
          </mxGeometry>
        </mxCell>
        <mxCell id="2210" style="edgeStyle=orthogonalEdgeStyle;rounded=1;html=1;strokeColor=#23445D;endArrow=none;endFill=0;strokeWidth=4" parent="1" source="2114" target="2139" edge="1">
          <mxGeometry relative="1" as="geometry">
            <Array as="points">
              <mxPoint x="193" y="929" />
            </Array>
          </mxGeometry>
        </mxCell>
        <mxCell id="2211" style="edgeStyle=orthogonalEdgeStyle;rounded=1;html=1;strokeColor=#23445D;endArrow=none;endFill=0;strokeWidth=4" parent="1" source="2114" target="2122" edge="1">
          <mxGeometry relative="1" as="geometry">
            <Array as="points">
              <mxPoint x="193" y="869" />
            </Array>
          </mxGeometry>
        </mxCell>
        <mxCell id="2212" style="edgeStyle=orthogonalEdgeStyle;rounded=1;html=1;strokeColor=#23445D;endArrow=none;endFill=0;strokeWidth=4" parent="1" source="2114" target="2124" edge="1">
          <mxGeometry relative="1" as="geometry">
            <Array as="points">
              <mxPoint x="193" y="947" />
            </Array>
          </mxGeometry>
        </mxCell>
        <mxCell id="2213" value="" style="shape=mxgraph.cisco.misc.access_point;html=1;dashed=0;fillColor=#10739E;strokeColor=#ffffff;strokeWidth=2;verticalLabelPosition=bottom;verticalAlign=top;fontFamily=Helvetica;fontSize=36;fontColor=#FFB366" parent="1" vertex="1">
          <mxGeometry x="1517" y="865" width="79" height="34" as="geometry" />
        </mxCell>
        <mxCell id="2214" value="" style="shape=mxgraph.cisco.misc.access_point;html=1;dashed=0;fillColor=#10739E;strokeColor=#ffffff;strokeWidth=2;verticalLabelPosition=bottom;verticalAlign=top;fontFamily=Helvetica;fontSize=36;fontColor=#FFB366" parent="1" vertex="1">
          <mxGeometry x="1517" y="939" width="75" height="34" as="geometry" />
        </mxCell>
        <mxCell id="2215" value="" style="shape=mxgraph.cisco.misc.access_point;html=1;dashed=0;fillColor=#10739E;strokeColor=#ffffff;strokeWidth=2;verticalLabelPosition=bottom;verticalAlign=top;fontFamily=Helvetica;fontSize=36;fontColor=#FFB366" parent="1" vertex="1">
          <mxGeometry x="1517" y="788" width="75" height="34" as="geometry" />
        </mxCell>
        <mxCell id="2216" value="" style="shape=mxgraph.cisco.hubs_and_gateways.100baset_hub;html=1;dashed=0;fillColor=#10739E;strokeColor=#ffffff;strokeWidth=2;verticalLabelPosition=bottom;verticalAlign=top;fontFamily=Helvetica;fontSize=36;fontColor=#FFB366" parent="1" vertex="1">
          <mxGeometry x="1371" y="858" width="90" height="45" as="geometry" />
        </mxCell>
        <mxCell id="2217" value="" style="shape=mxgraph.cisco.hubs_and_gateways.100baset_hub;html=1;dashed=0;fillColor=#10739E;strokeColor=#ffffff;strokeWidth=2;verticalLabelPosition=bottom;verticalAlign=top;fontFamily=Helvetica;fontSize=36;fontColor=#FFB366" parent="1" vertex="1">
          <mxGeometry x="1371" y="785" width="90" height="45" as="geometry" />
        </mxCell>
        <mxCell id="2218" value="" style="shape=mxgraph.cisco.hubs_and_gateways.100baset_hub;html=1;dashed=0;fillColor=#10739E;strokeColor=#ffffff;strokeWidth=2;verticalLabelPosition=bottom;verticalAlign=top;fontFamily=Helvetica;fontSize=36;fontColor=#FFB366" parent="1" vertex="1">
          <mxGeometry x="1371" y="928" width="90" height="45" as="geometry" />
        </mxCell>
        <mxCell id="2219" style="edgeStyle=orthogonalEdgeStyle;rounded=1;html=1;strokeColor=#23445D;endArrow=none;endFill=0;strokeWidth=4" parent="1" source="2135" target="2137" edge="1">
          <mxGeometry relative="1" as="geometry" />
        </mxCell>
        <mxCell id="2220" style="edgeStyle=orthogonalEdgeStyle;rounded=1;html=1;strokeColor=#23445D;endArrow=none;endFill=0;strokeWidth=4" parent="1" source="2137" target="2217" edge="1">
          <mxGeometry relative="1" as="geometry">
            <Array as="points">
              <mxPoint x="1482" y="810" />
            </Array>
          </mxGeometry>
        </mxCell>
        <mxCell id="2221" style="edgeStyle=orthogonalEdgeStyle;rounded=1;html=1;strokeColor=#23445D;endArrow=none;endFill=0;strokeWidth=4" parent="1" source="2137" target="2216" edge="1">
          <mxGeometry relative="1" as="geometry">
            <Array as="points">
              <mxPoint x="1482" y="880" />
            </Array>
          </mxGeometry>
        </mxCell>
        <mxCell id="2222" style="edgeStyle=orthogonalEdgeStyle;rounded=1;html=1;strokeColor=#23445D;endArrow=none;endFill=0;strokeWidth=4" parent="1" source="2137" target="2218" edge="1">
          <mxGeometry relative="1" as="geometry">
            <Array as="points">
              <mxPoint x="1482" y="950" />
            </Array>
          </mxGeometry>
        </mxCell>
        <mxCell id="2223" style="edgeStyle=orthogonalEdgeStyle;rounded=1;html=1;strokeColor=#23445D;endArrow=none;endFill=0;strokeWidth=4" parent="1" source="2137" target="2215" edge="1">
          <mxGeometry relative="1" as="geometry">
            <Array as="points">
              <mxPoint x="1482" y="800" />
            </Array>
          </mxGeometry>
        </mxCell>
        <mxCell id="2224" style="edgeStyle=orthogonalEdgeStyle;rounded=1;html=1;strokeColor=#23445D;endArrow=none;endFill=0;strokeWidth=4" parent="1" source="2137" target="2213" edge="1">
          <mxGeometry relative="1" as="geometry">
            <Array as="points">
              <mxPoint x="1482" y="870" />
            </Array>
          </mxGeometry>
        </mxCell>
        <mxCell id="2225" style="edgeStyle=orthogonalEdgeStyle;rounded=1;html=1;strokeColor=#23445D;endArrow=none;endFill=0;strokeWidth=4" parent="1" source="2137" target="2214" edge="1">
          <mxGeometry relative="1" as="geometry">
            <Array as="points">
              <mxPoint x="1482" y="950" />
            </Array>
          </mxGeometry>
        </mxCell>
        <mxCell id="2226" value="&lt;font color=&quot;#23445d&quot;&gt;Management and core servers&lt;/font&gt;" style="rounded=1;whiteSpace=wrap;html=1;strokeColor=none;fillColor=none;fontSize=14;fontColor=#742B21;align=center;fontStyle=1" parent="1" vertex="1">
          <mxGeometry x="263" y="42" width="225" height="19" as="geometry" />
        </mxCell>
        <mxCell id="2227" value="&lt;font color=&quot;#23445d&quot;&gt;External servers&lt;/font&gt;" style="rounded=1;whiteSpace=wrap;html=1;strokeColor=none;fillColor=none;fontSize=14;fontColor=#742B21;align=center;fontStyle=1" parent="1" vertex="1">
          <mxGeometry x="1315" y="42" width="143" height="19" as="geometry" />
        </mxCell>
        <mxCell id="2228" value="&lt;font color=&quot;#23445d&quot;&gt;WAN&lt;/font&gt;" style="rounded=1;whiteSpace=wrap;html=1;strokeColor=none;fillColor=none;fontSize=14;fontColor=#742B21;align=center;fontStyle=1" parent="1" vertex="1">
          <mxGeometry x="1447" y="434" width="73" height="19" as="geometry" />
        </mxCell>
        <mxCell id="2229" value="Access 4" style="rounded=1;whiteSpace=wrap;html=1;strokeColor=none;fillColor=none;fontSize=14;fontColor=#23445D;align=center;fontStyle=1" parent="1" vertex="1">
          <mxGeometry x="1436" y="991" width="98" height="19" as="geometry" />
        </mxCell>
        <mxCell id="2230" value="Access 2" style="rounded=1;whiteSpace=wrap;html=1;strokeColor=none;fillColor=none;fontSize=14;fontColor=#23445D;align=center;fontStyle=1" parent="1" vertex="1">
          <mxGeometry x="745" y="1113" width="96" height="19" as="geometry" />
        </mxCell>
        <mxCell id="2231" value="Access 3" style="rounded=1;whiteSpace=wrap;html=1;strokeColor=none;fillColor=none;fontSize=14;fontColor=#23445D;align=center;fontStyle=1" parent="1" vertex="1">
          <mxGeometry x="1167" y="1112" width="78" height="20" as="geometry" />
        </mxCell>
        <mxCell id="2232" value="&lt;font color=&quot;#23445d&quot;&gt;Expansion&lt;/font&gt;" style="rounded=1;whiteSpace=wrap;html=1;strokeColor=none;fillColor=none;fontSize=14;fontColor=#742B21;align=center;fontStyle=1" parent="1" vertex="1">
          <mxGeometry x="417" y="953" width="109" height="19" as="geometry" />
        </mxCell>
        <mxCell id="2233" value="Access 1" style="rounded=1;whiteSpace=wrap;html=1;strokeColor=none;fillColor=none;fontSize=14;fontColor=#23445D;align=center;fontStyle=1" parent="1" vertex="1">
          <mxGeometry x="142" y="1130" width="93" height="19" as="geometry" />
        </mxCell>
        <mxCell id="2234" value="" style="shape=mxgraph.cisco.hubs_and_gateways.100baset_hub;html=1;dashed=0;fillColor=#10739E;strokeColor=#ffffff;strokeWidth=2;verticalLabelPosition=bottom;verticalAlign=top;fontFamily=Helvetica;fontSize=36;fontColor=#FFB366" parent="1" vertex="1">
          <mxGeometry x="59" y="1071" width="90" height="45" as="geometry" />
        </mxCell>
        <mxCell id="2235" value="" style="shape=mxgraph.cisco.hubs_and_gateways.100baset_hub;html=1;dashed=0;fillColor=#10739E;strokeColor=#ffffff;strokeWidth=2;verticalLabelPosition=bottom;verticalAlign=top;fontFamily=Helvetica;fontSize=36;fontColor=#FFB366" parent="1" vertex="1">
          <mxGeometry x="59" y="998" width="90" height="45" as="geometry" />
        </mxCell>
        <mxCell id="2236" value="" style="shape=mxgraph.cisco.misc.access_point;html=1;dashed=0;fillColor=#10739E;strokeColor=#ffffff;strokeWidth=2;verticalLabelPosition=bottom;verticalAlign=top;fontFamily=Helvetica;fontSize=36;fontColor=#FFB366" parent="1" vertex="1">
          <mxGeometry x="223" y="1000" width="75" height="34" as="geometry" />
        </mxCell>
        <mxCell id="2237" value="" style="shape=mxgraph.cisco.misc.access_point;html=1;dashed=0;fillColor=#10739E;strokeColor=#ffffff;strokeWidth=2;verticalLabelPosition=bottom;verticalAlign=top;fontFamily=Helvetica;fontSize=36;fontColor=#FFB366" parent="1" vertex="1">
          <mxGeometry x="223" y="1078" width="75" height="34" as="geometry" />
        </mxCell>
        <mxCell id="2238" style="edgeStyle=orthogonalEdgeStyle;rounded=1;html=1;endArrow=none;endFill=0;strokeColor=#23445D;strokeWidth=4;fontSize=14;fontColor=#990000" parent="1" source="2114" target="2237" edge="1">
          <mxGeometry relative="1" as="geometry">
            <Array as="points">
              <mxPoint x="193" y="1095" />
            </Array>
          </mxGeometry>
        </mxCell>
        <mxCell id="2239" style="edgeStyle=orthogonalEdgeStyle;rounded=1;html=1;endArrow=none;endFill=0;strokeColor=#23445D;strokeWidth=4;fontSize=14;fontColor=#990000" parent="1" source="2114" target="2236" edge="1">
          <mxGeometry relative="1" as="geometry">
            <Array as="points">
              <mxPoint x="193" y="1017" />
            </Array>
          </mxGeometry>
        </mxCell>
        <mxCell id="2240" style="edgeStyle=orthogonalEdgeStyle;rounded=1;html=1;endArrow=none;endFill=0;strokeColor=#23445D;strokeWidth=4;fontSize=14;fontColor=#990000" parent="1" source="2114" target="2235" edge="1">
          <mxGeometry relative="1" as="geometry">
            <Array as="points">
              <mxPoint x="193" y="1010" />
            </Array>
          </mxGeometry>
        </mxCell>
        <mxCell id="2241" style="edgeStyle=orthogonalEdgeStyle;rounded=1;html=1;endArrow=none;endFill=0;strokeColor=#23445D;strokeWidth=4;fontSize=14;fontColor=#990000" parent="1" source="2114" target="2234" edge="1">
          <mxGeometry relative="1" as="geometry">
            <Array as="points">
              <mxPoint x="193" y="1080" />
            </Array>
          </mxGeometry>
        </mxCell>
        <mxCell id="2242" value="" style="shape=mxgraph.cisco.switches.workgroup_switch;html=1;dashed=0;fillColor=#10739E;strokeColor=#ffffff;strokeWidth=2;verticalLabelPosition=bottom;verticalAlign=top;fontFamily=Helvetica;fontSize=36;fontColor=#FFB366" parent="1" vertex="1">
          <mxGeometry x="421" y="782" width="101" height="50" as="geometry" />
        </mxCell>
        <mxCell id="2243" style="rounded=1;html=1;entryX=0.224;entryY=0.5;entryPerimeter=0;strokeColor=#23445D;endArrow=none;endFill=0;strokeWidth=4" parent="1" source="2242" edge="1">
          <mxGeometry relative="1" as="geometry">
            <mxPoint x="472.5606936416185" y="746.2427745664738" as="sourcePoint" />
            <mxPoint x="470.8265895953755" y="930.057803468208" as="targetPoint" />
          </mxGeometry>
        </mxCell>
        <mxCell id="2244" style="rounded=1;html=1;endArrow=none;endFill=0;strokeColor=#23445D;strokeWidth=4;fontSize=14;fontColor=#990000" parent="1" source="2116" target="2242" edge="1">
          <mxGeometry relative="1" as="geometry" />
        </mxCell>
        <mxCell id="2245" value="" style="shape=mxgraph.cisco.hubs_and_gateways.100baset_hub;html=1;dashed=0;fillColor=#10739E;strokeColor=#ffffff;strokeWidth=2;verticalLabelPosition=bottom;verticalAlign=top;fontFamily=Helvetica;fontSize=36;fontColor=#FFB366" parent="1" vertex="1">
          <mxGeometry x="672" y="991" width="90" height="45" as="geometry" />
        </mxCell>
        <mxCell id="2246" value="" style="shape=mxgraph.cisco.hubs_and_gateways.100baset_hub;html=1;dashed=0;fillColor=#10739E;strokeColor=#ffffff;strokeWidth=2;verticalLabelPosition=bottom;verticalAlign=top;fontFamily=Helvetica;fontSize=36;fontColor=#FFB366" parent="1" vertex="1">
          <mxGeometry x="672" y="1061" width="90" height="45" as="geometry" />
        </mxCell>
        <mxCell id="2247" value="" style="shape=mxgraph.cisco.misc.access_point;html=1;dashed=0;fillColor=#10739E;strokeColor=#ffffff;strokeWidth=2;verticalLabelPosition=bottom;verticalAlign=top;fontFamily=Helvetica;fontSize=36;fontColor=#FFB366" parent="1" vertex="1">
          <mxGeometry x="813" y="991" width="79" height="34" as="geometry" />
        </mxCell>
        <mxCell id="2248" value="" style="shape=mxgraph.cisco.misc.access_point;html=1;dashed=0;fillColor=#10739E;strokeColor=#ffffff;strokeWidth=2;verticalLabelPosition=bottom;verticalAlign=top;fontFamily=Helvetica;fontSize=36;fontColor=#FFB366" parent="1" vertex="1">
          <mxGeometry x="813" y="1065" width="75" height="34" as="geometry" />
        </mxCell>
        <mxCell id="2249" style="edgeStyle=orthogonalEdgeStyle;rounded=1;html=1;endArrow=none;endFill=0;strokeColor=#23445D;strokeWidth=4;fontSize=14;fontColor=#990000" parent="1" source="2136" target="2247" edge="1">
          <mxGeometry relative="1" as="geometry">
            <Array as="points">
              <mxPoint x="795" y="1008" />
            </Array>
          </mxGeometry>
        </mxCell>
        <mxCell id="2250" style="edgeStyle=orthogonalEdgeStyle;rounded=1;html=1;endArrow=none;endFill=0;strokeColor=#23445D;strokeWidth=4;fontSize=14;fontColor=#990000" parent="1" source="2136" target="2248" edge="1">
          <mxGeometry relative="1" as="geometry">
            <Array as="points">
              <mxPoint x="795" y="1082" />
            </Array>
          </mxGeometry>
        </mxCell>
        <mxCell id="2251" style="edgeStyle=orthogonalEdgeStyle;rounded=1;html=1;endArrow=none;endFill=0;strokeColor=#23445D;strokeWidth=4;fontSize=14;fontColor=#990000" parent="1" source="2136" target="2245" edge="1">
          <mxGeometry relative="1" as="geometry">
            <Array as="points">
              <mxPoint x="795" y="1000" />
            </Array>
          </mxGeometry>
        </mxCell>
        <mxCell id="2252" style="edgeStyle=orthogonalEdgeStyle;rounded=1;html=1;endArrow=none;endFill=0;strokeColor=#23445D;strokeWidth=4;fontSize=14;fontColor=#990000" parent="1" source="2136" target="2246" edge="1">
          <mxGeometry relative="1" as="geometry">
            <Array as="points">
              <mxPoint x="795" y="1070" />
            </Array>
          </mxGeometry>
        </mxCell>
        <mxCell id="2253" value="" style="shape=mxgraph.cisco.hubs_and_gateways.100baset_hub;html=1;dashed=0;fillColor=#10739E;strokeColor=#ffffff;strokeWidth=2;verticalLabelPosition=bottom;verticalAlign=top;fontFamily=Helvetica;fontSize=36;fontColor=#FFB366" parent="1" vertex="1">
          <mxGeometry x="1137" y="984" width="90" height="45" as="geometry" />
        </mxCell>
        <mxCell id="2254" value="" style="shape=mxgraph.cisco.hubs_and_gateways.100baset_hub;html=1;dashed=0;fillColor=#10739E;strokeColor=#ffffff;strokeWidth=2;verticalLabelPosition=bottom;verticalAlign=top;fontFamily=Helvetica;fontSize=36;fontColor=#FFB366" parent="1" vertex="1">
          <mxGeometry x="1137" y="1054" width="90" height="45" as="geometry" />
        </mxCell>
        <mxCell id="2255" style="edgeStyle=orthogonalEdgeStyle;rounded=1;html=1;endArrow=none;endFill=0;strokeColor=#23445D;strokeWidth=4;fontSize=14;fontColor=#990000" parent="1" source="2117" target="2253" edge="1">
          <mxGeometry relative="1" as="geometry">
            <Array as="points">
              <mxPoint x="1260" y="1000" />
            </Array>
          </mxGeometry>
        </mxCell>
        <mxCell id="2256" style="edgeStyle=orthogonalEdgeStyle;rounded=1;html=1;endArrow=none;endFill=0;strokeColor=#23445D;strokeWidth=4;fontSize=14;fontColor=#990000" parent="1" source="2117" target="2254" edge="1">
          <mxGeometry relative="1" as="geometry">
            <Array as="points">
              <mxPoint x="1260" y="1070" />
            </Array>
          </mxGeometry>
        </mxCell>
        <mxCell id="2257" style="edgeStyle=orthogonalEdgeStyle;curved=1;rounded=0;jumpStyle=none;html=1;exitX=0.75;exitY=0;entryX=0.75;entryY=0;shadow=0;labelBackgroundColor=#ffffff;startArrow=none;startFill=0;endArrow=none;endFill=0;endSize=10;jettySize=auto;orthogonalLoop=1;strokeColor=#23445D;strokeWidth=2;fillColor=#F08705;fontFamily=Helvetica;fontSize=25;fontColor=#23445D;align=left;" parent="1" source="2087" target="2087" edge="1">
          <mxGeometry relative="1" as="geometry" />
        </mxCell>
        <mxCell id="sDm5vTPtQ9kXyRebXaco-2283" value="Internet" style="shape=mxgraph.cisco.storage.cloud;html=1;dashed=0;strokeColor=#23445D;fillColor=#ffffff;strokeWidth=2;fontFamily=Helvetica;fontSize=24;fontColor=#23445D;align=center;fontStyle=1" parent="1" vertex="1">
          <mxGeometry x="1.4899999999999665" y="-690" width="186" height="106" as="geometry" />
        </mxCell>
        <mxCell id="sDm5vTPtQ9kXyRebXaco-2257" value="Logs:&lt;div&gt;-servidores Linux&lt;/div&gt;&lt;div&gt;&lt;br&gt;&lt;/div&gt;&lt;div&gt;&lt;br&gt;&lt;/div&gt;&lt;div&gt;-servidores windows&lt;/div&gt;&lt;div&gt;&lt;br&gt;&lt;/div&gt;&lt;div&gt;&lt;br&gt;&lt;/div&gt;&lt;div&gt;-firewalls&lt;/div&gt;&lt;div&gt;&lt;br&gt;&lt;/div&gt;&lt;div&gt;&lt;br&gt;&lt;/div&gt;&lt;div&gt;-switches&lt;/div&gt;&lt;div&gt;&lt;br&gt;&lt;/div&gt;&lt;div&gt;-roteadores&lt;/div&gt;&lt;div&gt;&lt;br&gt;&lt;/div&gt;&lt;div&gt;-aplicativos&lt;/div&gt;&lt;div&gt;&lt;br&gt;&lt;/div&gt;&lt;div&gt;-balanceador de carga&lt;/div&gt;&lt;div&gt;&lt;br&gt;&lt;/div&gt;&lt;div&gt;-cluster de processamento de eventos&lt;/div&gt;&lt;div&gt;&lt;br&gt;&lt;/div&gt;&lt;div&gt;-banco de dados&lt;/div&gt;" style="text;html=1;align=center;verticalAlign=middle;resizable=0;points=[];autosize=1;strokeColor=none;fillColor=none;fontSize=16;container=0;" parent="1" vertex="1">
          <mxGeometry x="4.490000000000059" y="-1160" width="290" height="420" as="geometry" />
        </mxCell>
        <mxCell id="sDm5vTPtQ9kXyRebXaco-2258" value="" style="shape=mxgraph.cisco.computers_and_peripherals.ibm_mainframe;sketch=0;html=1;pointerEvents=1;dashed=0;fillColor=#036897;strokeColor=#ffffff;strokeWidth=2;verticalLabelPosition=bottom;verticalAlign=top;align=center;outlineConnect=0;container=0;" parent="1" vertex="1">
          <mxGeometry x="227.61000000000007" y="-1124.5" width="25.71" height="36" as="geometry" />
        </mxCell>
        <mxCell id="sDm5vTPtQ9kXyRebXaco-2259" value="" style="shape=mxgraph.cisco.computers_and_peripherals.ibm_mini_as400;sketch=0;html=1;pointerEvents=1;dashed=0;fillColor=#036897;strokeColor=#ffffff;strokeWidth=2;verticalLabelPosition=bottom;verticalAlign=top;align=center;outlineConnect=0;container=0;" parent="1" vertex="1">
          <mxGeometry x="225.5700000000001" y="-1064.5" width="27.75" height="40" as="geometry" />
        </mxCell>
        <mxCell id="sDm5vTPtQ9kXyRebXaco-2262" value="&lt;span style=&quot;color: rgba(0, 0, 0, 0); font-family: monospace; font-size: 0px; text-align: start;&quot;&gt;%3CmxGraphModel%3E%3Croot%3E%3CmxCell%20id%3D%220%22%2F%3E%3CmxCell%20id%3D%221%22%20parent%3D%220%22%2F%3E%3CmxCell%20id%3D%222%22%20value%3D%22Internet%22%20style%3D%22shape%3Dmxgraph.cisco.storage.cloud%3Bhtml%3D1%3Bdashed%3D0%3BstrokeColor%3D%2323445D%3BfillColor%3D%23ffffff%3BstrokeWidth%3D2%3BfontFamily%3DHelvetica%3BfontSize%3D24%3BfontColor%3D%2323445D%3Balign%3Dcenter%3BfontStyle%3D1%22%20vertex%3D%221%22%20parent%3D%221%22%3E%3CmxGeometry%20x%3D%22803%22%20y%3D%2216%22%20width%3D%22186%22%20height%3D%22106%22%20as%3D%22geometry%22%2F%3E%3C%2FmxCell%3E%3C%2Froot%3E%3C%2FmxGraphModel%3E&lt;/span&gt;" style="shape=mxgraph.cisco.security.firewall;sketch=0;html=1;pointerEvents=1;dashed=0;fillColor=#036897;strokeColor=#ffffff;strokeWidth=2;verticalLabelPosition=bottom;verticalAlign=top;align=center;outlineConnect=0;container=0;" parent="1" vertex="1">
          <mxGeometry x="229.49000000000007" y="-1013.5" width="19.91" height="46" as="geometry" />
        </mxCell>
        <mxCell id="sDm5vTPtQ9kXyRebXaco-2263" value="" style="shape=mxgraph.cisco.routers.router;sketch=0;html=1;pointerEvents=1;dashed=0;fillColor=#036897;strokeColor=#ffffff;strokeWidth=2;verticalLabelPosition=bottom;verticalAlign=top;align=center;outlineConnect=0;container=0;" parent="1" vertex="1">
          <mxGeometry x="213.5800000000001" y="-919.5" width="39.74" height="27" as="geometry" />
        </mxCell>
        <mxCell id="sDm5vTPtQ9kXyRebXaco-2264" value="" style="shape=mxgraph.cisco.switches.workgroup_switch;sketch=0;html=1;pointerEvents=1;dashed=0;fillColor=#036897;strokeColor=#ffffff;strokeWidth=2;verticalLabelPosition=bottom;verticalAlign=top;align=center;outlineConnect=0;container=0;" parent="1" vertex="1">
          <mxGeometry x="211.90000000000015" y="-954.85" width="45.15" height="22.35" as="geometry" />
        </mxCell>
        <mxCell id="sDm5vTPtQ9kXyRebXaco-2278" value="APP" style="swimlane;container=0;" parent="1" vertex="1" collapsed="1">
          <mxGeometry x="209.40000000000006" y="-879.5" width="53" height="26.5" as="geometry">
            <mxRectangle x="149.90999999999997" y="273.5" width="40" height="50" as="alternateBounds" />
          </mxGeometry>
        </mxCell>
        <mxCell id="sDm5vTPtQ9kXyRebXaco-2286" value="&lt;span style=&quot;color: rgba(0, 0, 0, 0); font-family: monospace; font-size: 0px; text-align: start;&quot;&gt;%3CmxGraphModel%3E%3Croot%3E%3CmxCell%20id%3D%220%22%2F%3E%3CmxCell%20id%3D%221%22%20parent%3D%220%22%2F%3E%3CmxCell%20id%3D%222%22%20value%3D%22Internet%22%20style%3D%22shape%3Dmxgraph.cisco.storage.cloud%3Bhtml%3D1%3Bdashed%3D0%3BstrokeColor%3D%2323445D%3BfillColor%3D%23ffffff%3BstrokeWidth%3D2%3BfontFamily%3DHelvetica%3BfontSize%3D24%3BfontColor%3D%2323445D%3Balign%3Dcenter%3BfontStyle%3D1%22%20vertex%3D%221%22%20parent%3D%221%22%3E%3CmxGeometry%20x%3D%22803%22%20y%3D%2216%22%20width%3D%22186%22%20height%3D%22106%22%20as%3D%22geometry%22%2F%3E%3C%2FmxCell%3E%3C%2Froot%3E%3C%2FmxGraphModel%3E&lt;/span&gt;" style="shape=mxgraph.cisco.security.firewall;sketch=0;html=1;pointerEvents=1;dashed=0;fillColor=#036897;strokeColor=#ffffff;strokeWidth=2;verticalLabelPosition=bottom;verticalAlign=top;align=center;outlineConnect=0;container=0;" parent="1" vertex="1">
          <mxGeometry x="214.00000000000006" y="-1298.5" width="19.91" height="46" as="geometry" />
        </mxCell>
        <mxCell id="sDm5vTPtQ9kXyRebXaco-2327" style="edgeStyle=none;curved=1;rounded=0;orthogonalLoop=1;jettySize=auto;html=1;exitX=0;exitY=0.5;exitDx=0;exitDy=0;exitPerimeter=0;fontSize=12;startSize=8;endSize=8;startArrow=classic;startFill=1;" parent="1" source="sDm5vTPtQ9kXyRebXaco-2287" edge="1" target="sDm5vTPtQ9kXyRebXaco-2301">
          <mxGeometry relative="1" as="geometry">
            <mxPoint x="667.58" y="-650" as="targetPoint" />
          </mxGeometry>
        </mxCell>
        <mxCell id="sDm5vTPtQ9kXyRebXaco-2287" value="" style="shape=mxgraph.cisco.computers_and_peripherals.ibm_mainframe;sketch=0;html=1;pointerEvents=1;dashed=0;fillColor=#036897;strokeColor=#ffffff;strokeWidth=2;verticalLabelPosition=bottom;verticalAlign=top;align=center;outlineConnect=0;container=0;" parent="1" vertex="1">
          <mxGeometry x="713.8700000000001" y="-673.65" width="25.71" height="36" as="geometry" />
        </mxCell>
        <mxCell id="sDm5vTPtQ9kXyRebXaco-2329" style="edgeStyle=none;curved=1;rounded=0;orthogonalLoop=1;jettySize=auto;html=1;exitX=0;exitY=0.5;exitDx=0;exitDy=0;exitPerimeter=0;fontSize=12;startSize=8;endSize=8;startArrow=classic;startFill=1;" parent="1" source="sDm5vTPtQ9kXyRebXaco-2288" edge="1">
          <mxGeometry relative="1" as="geometry">
            <mxPoint x="647.58" y="-640" as="targetPoint" />
          </mxGeometry>
        </mxCell>
        <mxCell id="sDm5vTPtQ9kXyRebXaco-2288" value="" style="shape=mxgraph.cisco.computers_and_peripherals.ibm_mini_as400;sketch=0;html=1;pointerEvents=1;dashed=0;fillColor=#036897;strokeColor=#ffffff;strokeWidth=2;verticalLabelPosition=bottom;verticalAlign=top;align=center;outlineConnect=0;container=0;" parent="1" vertex="1">
          <mxGeometry x="706.8300000000002" y="-540" width="27.75" height="40" as="geometry" />
        </mxCell>
        <mxCell id="sDm5vTPtQ9kXyRebXaco-2289" value="" style="shape=mxgraph.cisco.switches.workgroup_switch;sketch=0;html=1;pointerEvents=1;dashed=0;fillColor=#036897;strokeColor=#ffffff;strokeWidth=2;verticalLabelPosition=bottom;verticalAlign=top;align=center;outlineConnect=0;container=0;" parent="1" vertex="1">
          <mxGeometry x="251.85000000000014" y="-1277.85" width="45.15" height="22.35" as="geometry" />
        </mxCell>
        <mxCell id="sDm5vTPtQ9kXyRebXaco-2290" value="" style="shape=mxgraph.cisco.routers.router;sketch=0;html=1;pointerEvents=1;dashed=0;fillColor=#036897;strokeColor=#ffffff;strokeWidth=2;verticalLabelPosition=bottom;verticalAlign=top;align=center;outlineConnect=0;container=0;" parent="1" vertex="1">
          <mxGeometry x="333.0000000000001" y="-1288.5" width="39.74" height="27" as="geometry" />
        </mxCell>
        <mxCell id="sDm5vTPtQ9kXyRebXaco-2292" value="&lt;span style=&quot;color: rgba(0, 0, 0, 0); font-family: monospace; font-size: 0px; text-align: start;&quot;&gt;%3CmxGraphModel%3E%3Croot%3E%3CmxCell%20id%3D%220%22%2F%3E%3CmxCell%20id%3D%221%22%20parent%3D%220%22%2F%3E%3CmxCell%20id%3D%222%22%20value%3D%22Internet%22%20style%3D%22shape%3Dmxgraph.cisco.storage.cloud%3Bhtml%3D1%3Bdashed%3D0%3BstrokeColor%3D%2323445D%3BfillColor%3D%23ffffff%3BstrokeWidth%3D2%3BfontFamily%3DHelvetica%3BfontSize%3D24%3BfontColor%3D%2323445D%3Balign%3Dcenter%3BfontStyle%3D1%22%20vertex%3D%221%22%20parent%3D%221%22%3E%3CmxGeometry%20x%3D%22803%22%20y%3D%2216%22%20width%3D%22186%22%20height%3D%22106%22%20as%3D%22geometry%22%2F%3E%3C%2FmxCell%3E%3C%2Froot%3E%3C%2FmxGraphModel%3E&lt;/span&gt;" style="shape=mxgraph.cisco.security.firewall;sketch=0;html=1;pointerEvents=1;dashed=0;fillColor=#036897;strokeColor=#ffffff;strokeWidth=2;verticalLabelPosition=bottom;verticalAlign=top;align=center;outlineConnect=0;container=0;" parent="1" vertex="1">
          <mxGeometry x="515.6700000000001" y="-670" width="19.91" height="46" as="geometry" />
        </mxCell>
        <mxCell id="sDm5vTPtQ9kXyRebXaco-2293" value="" style="shape=mxgraph.cisco.computers_and_peripherals.ibm_mainframe;sketch=0;html=1;pointerEvents=1;dashed=0;fillColor=#036897;strokeColor=#ffffff;strokeWidth=2;verticalLabelPosition=bottom;verticalAlign=top;align=center;outlineConnect=0;container=0;" parent="1" vertex="1">
          <mxGeometry x="708.8700000000001" y="-722.5" width="25.71" height="36" as="geometry" />
        </mxCell>
        <mxCell id="sDm5vTPtQ9kXyRebXaco-2328" style="edgeStyle=none;curved=1;rounded=0;orthogonalLoop=1;jettySize=auto;html=1;exitX=0;exitY=0.5;exitDx=0;exitDy=0;exitPerimeter=0;fontSize=12;startSize=8;endSize=8;startArrow=classic;startFill=1;" parent="1" source="sDm5vTPtQ9kXyRebXaco-2294" target="sDm5vTPtQ9kXyRebXaco-2301" edge="1">
          <mxGeometry relative="1" as="geometry" />
        </mxCell>
        <mxCell id="sDm5vTPtQ9kXyRebXaco-2294" value="" style="shape=mxgraph.cisco.computers_and_peripherals.ibm_mini_as400;sketch=0;html=1;pointerEvents=1;dashed=0;fillColor=#036897;strokeColor=#ffffff;strokeWidth=2;verticalLabelPosition=bottom;verticalAlign=top;align=center;outlineConnect=0;container=0;" parent="1" vertex="1">
          <mxGeometry x="713.8700000000002" y="-614" width="27.75" height="40" as="geometry" />
        </mxCell>
        <mxCell id="sDm5vTPtQ9kXyRebXaco-2296" value="" style="shape=mxgraph.cisco.routers.router;sketch=0;html=1;pointerEvents=1;dashed=0;fillColor=#036897;strokeColor=#ffffff;strokeWidth=2;verticalLabelPosition=bottom;verticalAlign=top;align=center;outlineConnect=0;container=0;" parent="1" vertex="1">
          <mxGeometry x="568.8400000000001" y="-660" width="39.74" height="27" as="geometry" />
        </mxCell>
        <mxCell id="sDm5vTPtQ9kXyRebXaco-2332" style="edgeStyle=none;curved=1;rounded=0;orthogonalLoop=1;jettySize=auto;html=1;exitX=0;exitY=0.5;exitDx=0;exitDy=0;fontSize=12;startSize=8;endSize=8;" parent="1" source="sDm5vTPtQ9kXyRebXaco-2297" target="sDm5vTPtQ9kXyRebXaco-2311" edge="1">
          <mxGeometry relative="1" as="geometry" />
        </mxCell>
        <mxCell id="sDm5vTPtQ9kXyRebXaco-2297" value="APP" style="swimlane;container=0;startSize=23;" parent="1" vertex="1" collapsed="1">
          <mxGeometry x="751.58" y="-470" width="53" height="26.5" as="geometry">
            <mxRectangle x="149.90999999999997" y="273.5" width="40" height="50" as="alternateBounds" />
          </mxGeometry>
        </mxCell>
        <mxCell id="sDm5vTPtQ9kXyRebXaco-2298" value="&lt;span style=&quot;color: rgba(0, 0, 0, 0); font-family: monospace; font-size: 0px; text-align: start;&quot;&gt;%3CmxGraphModel%3E%3Croot%3E%3CmxCell%20id%3D%220%22%2F%3E%3CmxCell%20id%3D%221%22%20parent%3D%220%22%2F%3E%3CmxCell%20id%3D%222%22%20value%3D%22Internet%22%20style%3D%22shape%3Dmxgraph.cisco.storage.cloud%3Bhtml%3D1%3Bdashed%3D0%3BstrokeColor%3D%2323445D%3BfillColor%3D%23ffffff%3BstrokeWidth%3D2%3BfontFamily%3DHelvetica%3BfontSize%3D24%3BfontColor%3D%2323445D%3Balign%3Dcenter%3BfontStyle%3D1%22%20vertex%3D%221%22%20parent%3D%221%22%3E%3CmxGeometry%20x%3D%22803%22%20y%3D%2216%22%20width%3D%22186%22%20height%3D%22106%22%20as%3D%22geometry%22%2F%3E%3C%2FmxCell%3E%3C%2Froot%3E%3C%2FmxGraphModel%3E&lt;/span&gt;" style="shape=mxgraph.cisco.security.firewall;sketch=0;html=1;pointerEvents=1;dashed=0;fillColor=#036897;strokeColor=#ffffff;strokeWidth=2;verticalLabelPosition=bottom;verticalAlign=top;align=center;outlineConnect=0;container=0;" parent="1" vertex="1">
          <mxGeometry x="212.58000000000004" y="-660" width="19.91" height="46" as="geometry" />
        </mxCell>
        <mxCell id="sDm5vTPtQ9kXyRebXaco-2320" style="edgeStyle=none;curved=1;rounded=0;orthogonalLoop=1;jettySize=auto;html=1;exitX=1;exitY=0.5;exitDx=0;exitDy=0;exitPerimeter=0;fontSize=12;startSize=8;endSize=8;startArrow=classic;startFill=1;" parent="1" source="sDm5vTPtQ9kXyRebXaco-2299" edge="1">
          <mxGeometry relative="1" as="geometry">
            <mxPoint x="507.58" y="-660" as="targetPoint" />
          </mxGeometry>
        </mxCell>
        <mxCell id="sDm5vTPtQ9kXyRebXaco-2299" value="" style="shape=mxgraph.cisco.computers_and_peripherals.ibm_mainframe;sketch=0;html=1;pointerEvents=1;dashed=0;fillColor=#036897;strokeColor=#ffffff;strokeWidth=2;verticalLabelPosition=bottom;verticalAlign=top;align=center;outlineConnect=0;container=0;" parent="1" vertex="1">
          <mxGeometry x="411.08000000000004" y="-720" width="25.71" height="36" as="geometry" />
        </mxCell>
        <mxCell id="sDm5vTPtQ9kXyRebXaco-2300" value="" style="shape=mxgraph.cisco.computers_and_peripherals.ibm_mini_as400;sketch=0;html=1;pointerEvents=1;dashed=0;fillColor=#036897;strokeColor=#ffffff;strokeWidth=2;verticalLabelPosition=bottom;verticalAlign=top;align=center;outlineConnect=0;container=0;" parent="1" vertex="1">
          <mxGeometry x="408.7400000000001" y="-614" width="27.75" height="40" as="geometry" />
        </mxCell>
        <mxCell id="sDm5vTPtQ9kXyRebXaco-2301" value="" style="shape=mxgraph.cisco.switches.workgroup_switch;sketch=0;html=1;pointerEvents=1;dashed=0;fillColor=#036897;strokeColor=#ffffff;strokeWidth=2;verticalLabelPosition=bottom;verticalAlign=top;align=center;outlineConnect=0;container=0;" parent="1" vertex="1">
          <mxGeometry x="634.4300000000002" y="-659.9999999999999" width="45.15" height="22.35" as="geometry" />
        </mxCell>
        <mxCell id="sDm5vTPtQ9kXyRebXaco-2316" style="edgeStyle=none;curved=1;rounded=0;orthogonalLoop=1;jettySize=auto;html=1;exitX=0.5;exitY=1;exitDx=0;exitDy=0;exitPerimeter=0;fontSize=12;startSize=8;endSize=8;" parent="1" source="sDm5vTPtQ9kXyRebXaco-2302" target="sDm5vTPtQ9kXyRebXaco-2312" edge="1">
          <mxGeometry relative="1" as="geometry" />
        </mxCell>
        <mxCell id="sDm5vTPtQ9kXyRebXaco-2322" style="edgeStyle=none;curved=1;rounded=0;orthogonalLoop=1;jettySize=auto;html=1;exitX=0;exitY=0.5;exitDx=0;exitDy=0;exitPerimeter=0;fontSize=12;startSize=8;endSize=8;startArrow=classic;startFill=1;" parent="1" source="sDm5vTPtQ9kXyRebXaco-2302" edge="1">
          <mxGeometry relative="1" as="geometry">
            <mxPoint x="237.57999999999998" y="-627" as="targetPoint" />
          </mxGeometry>
        </mxCell>
        <mxCell id="sDm5vTPtQ9kXyRebXaco-2302" value="" style="shape=mxgraph.cisco.routers.router;sketch=0;html=1;pointerEvents=1;dashed=0;fillColor=#036897;strokeColor=#ffffff;strokeWidth=2;verticalLabelPosition=bottom;verticalAlign=top;align=center;outlineConnect=0;container=0;" parent="1" vertex="1">
          <mxGeometry x="273.49" y="-641" width="40.86" height="27" as="geometry" />
        </mxCell>
        <mxCell id="sDm5vTPtQ9kXyRebXaco-2303" value="APP" style="swimlane;container=0;" parent="1" vertex="1" collapsed="1">
          <mxGeometry x="765.58" y="-526.5" width="53" height="26.5" as="geometry">
            <mxRectangle x="149.90999999999997" y="273.5" width="40" height="50" as="alternateBounds" />
          </mxGeometry>
        </mxCell>
        <mxCell id="sDm5vTPtQ9kXyRebXaco-2307" style="edgeStyle=none;curved=1;rounded=0;orthogonalLoop=1;jettySize=auto;html=1;exitX=0.5;exitY=0;exitDx=0;exitDy=0;exitPerimeter=0;fontSize=12;startSize=8;endSize=8;" parent="1" source="sDm5vTPtQ9kXyRebXaco-2296" target="sDm5vTPtQ9kXyRebXaco-2296" edge="1">
          <mxGeometry relative="1" as="geometry" />
        </mxCell>
        <mxCell id="sDm5vTPtQ9kXyRebXaco-2308" value="" style="shape=mxgraph.cisco.computers_and_peripherals.ibm_mainframe;sketch=0;html=1;pointerEvents=1;dashed=0;fillColor=#036897;strokeColor=#ffffff;strokeWidth=2;verticalLabelPosition=bottom;verticalAlign=top;align=center;outlineConnect=0;container=0;" parent="1" vertex="1">
          <mxGeometry x="85.26000000000005" y="-1298.5" width="25.71" height="36" as="geometry" />
        </mxCell>
        <mxCell id="sDm5vTPtQ9kXyRebXaco-2318" style="edgeStyle=none;curved=1;rounded=0;orthogonalLoop=1;jettySize=auto;html=1;exitX=0;exitY=0.5;exitDx=0;exitDy=0;exitPerimeter=0;fontSize=12;startSize=8;endSize=8;startArrow=classic;startFill=1;" parent="1" source="sDm5vTPtQ9kXyRebXaco-2309" edge="1">
          <mxGeometry relative="1" as="geometry">
            <mxPoint x="337.58" y="-620" as="targetPoint" />
          </mxGeometry>
        </mxCell>
        <mxCell id="sDm5vTPtQ9kXyRebXaco-2309" value="" style="shape=mxgraph.cisco.computers_and_peripherals.ibm_mini_as400;sketch=0;html=1;pointerEvents=1;dashed=0;fillColor=#036897;strokeColor=#ffffff;strokeWidth=2;verticalLabelPosition=bottom;verticalAlign=top;align=center;outlineConnect=0;container=0;" parent="1" vertex="1">
          <mxGeometry x="408.7400000000001" y="-614" width="27.75" height="40" as="geometry" />
        </mxCell>
        <mxCell id="sDm5vTPtQ9kXyRebXaco-2310" value="" style="shape=mxgraph.cisco.computers_and_peripherals.ibm_mini_as400;sketch=0;html=1;pointerEvents=1;dashed=0;fillColor=#036897;strokeColor=#ffffff;strokeWidth=2;verticalLabelPosition=bottom;verticalAlign=top;align=center;outlineConnect=0;container=0;" parent="1" vertex="1">
          <mxGeometry x="152.0000000000001" y="-1298.5" width="27.75" height="40" as="geometry" />
        </mxCell>
        <mxCell id="sDm5vTPtQ9kXyRebXaco-2311" value="" style="shape=mxgraph.cisco.computers_and_peripherals.pc;sketch=0;html=1;pointerEvents=1;dashed=0;fillColor=#036897;strokeColor=#ffffff;strokeWidth=2;verticalLabelPosition=bottom;verticalAlign=top;align=center;outlineConnect=0;" parent="1" vertex="1">
          <mxGeometry x="697.58" y="-480" width="33.43" height="30" as="geometry" />
        </mxCell>
        <mxCell id="ppVQWipgP5uERmSSBe8D-2262" style="edgeStyle=orthogonalEdgeStyle;rounded=0;orthogonalLoop=1;jettySize=auto;html=1;exitX=0;exitY=1;exitDx=0;exitDy=0;exitPerimeter=0;" edge="1" parent="1" source="sDm5vTPtQ9kXyRebXaco-2312">
          <mxGeometry relative="1" as="geometry">
            <mxPoint x="380" y="-158" as="targetPoint" />
            <Array as="points">
              <mxPoint x="380" y="-450" />
              <mxPoint x="380" y="-420" />
              <mxPoint x="340" y="-420" />
              <mxPoint x="340" y="-158" />
            </Array>
          </mxGeometry>
        </mxCell>
        <mxCell id="sDm5vTPtQ9kXyRebXaco-2312" value="" style="shape=mxgraph.cisco.misc.ace;sketch=0;html=1;pointerEvents=1;dashed=0;fillColor=#036897;strokeColor=#ffffff;strokeWidth=2;verticalLabelPosition=bottom;verticalAlign=top;align=center;outlineConnect=0;" parent="1" vertex="1">
          <mxGeometry x="378.94" y="-514" width="90" height="64" as="geometry" />
        </mxCell>
        <mxCell id="sDm5vTPtQ9kXyRebXaco-2313" value="" style="pointerEvents=1;shadow=0;dashed=0;html=1;strokeColor=none;fillColor=#4495D1;labelPosition=center;verticalLabelPosition=bottom;verticalAlign=top;align=center;outlineConnect=0;shape=mxgraph.veeam.cluster;" parent="1" vertex="1">
          <mxGeometry x="610" y="-1311.7" width="102.8" height="49.2" as="geometry" />
        </mxCell>
        <mxCell id="sDm5vTPtQ9kXyRebXaco-2314" value="" style="shape=mxgraph.cisco.servers.storage_server;sketch=0;html=1;pointerEvents=1;dashed=0;fillColor=#036897;strokeColor=#ffffff;strokeWidth=2;verticalLabelPosition=bottom;verticalAlign=top;align=center;outlineConnect=0;" parent="1" vertex="1">
          <mxGeometry x="720" y="-1320" width="54" height="83" as="geometry" />
        </mxCell>
        <mxCell id="sDm5vTPtQ9kXyRebXaco-2315" style="edgeStyle=none;curved=1;rounded=0;orthogonalLoop=1;jettySize=auto;html=1;exitX=0.5;exitY=1;exitDx=0;exitDy=0;exitPerimeter=0;fontSize=12;startSize=8;endSize=8;" parent="1" target="sDm5vTPtQ9kXyRebXaco-2312" edge="1">
          <mxGeometry relative="1" as="geometry">
            <mxPoint x="595.6200000000001" y="-633.0000000000005" as="sourcePoint" />
            <mxPoint x="477.58000000000015" y="-370" as="targetPoint" />
          </mxGeometry>
        </mxCell>
        <mxCell id="sDm5vTPtQ9kXyRebXaco-2317" style="edgeStyle=none;curved=1;rounded=0;orthogonalLoop=1;jettySize=auto;html=1;exitX=0;exitY=0.5;exitDx=0;exitDy=0;exitPerimeter=0;entryX=1;entryY=0.5;entryDx=0;entryDy=0;entryPerimeter=0;fontSize=12;startSize=8;endSize=8;startArrow=classic;startFill=1;" parent="1" source="sDm5vTPtQ9kXyRebXaco-2299" target="sDm5vTPtQ9kXyRebXaco-2302" edge="1">
          <mxGeometry relative="1" as="geometry" />
        </mxCell>
        <mxCell id="sDm5vTPtQ9kXyRebXaco-2319" style="edgeStyle=none;curved=1;rounded=0;orthogonalLoop=1;jettySize=auto;html=1;exitX=1;exitY=0.5;exitDx=0;exitDy=0;exitPerimeter=0;entryX=0;entryY=0.5;entryDx=0;entryDy=0;entryPerimeter=0;fontSize=12;startSize=8;endSize=8;startArrow=classic;startFill=1;" parent="1" source="sDm5vTPtQ9kXyRebXaco-2309" target="sDm5vTPtQ9kXyRebXaco-2292" edge="1">
          <mxGeometry relative="1" as="geometry" />
        </mxCell>
        <mxCell id="sDm5vTPtQ9kXyRebXaco-2323" style="edgeStyle=none;curved=1;rounded=0;orthogonalLoop=1;jettySize=auto;html=1;exitX=0;exitY=0.5;exitDx=0;exitDy=0;exitPerimeter=0;entryX=0.98;entryY=0.5;entryDx=0;entryDy=0;entryPerimeter=0;fontSize=12;startSize=8;endSize=8;startArrow=classic;startFill=1;" parent="1" source="sDm5vTPtQ9kXyRebXaco-2298" target="sDm5vTPtQ9kXyRebXaco-2283" edge="1">
          <mxGeometry relative="1" as="geometry" />
        </mxCell>
        <mxCell id="sDm5vTPtQ9kXyRebXaco-2324" style="edgeStyle=none;curved=1;rounded=0;orthogonalLoop=1;jettySize=auto;html=1;exitX=0;exitY=0.5;exitDx=0;exitDy=0;exitPerimeter=0;entryX=1;entryY=0.5;entryDx=0;entryDy=0;entryPerimeter=0;fontSize=12;startSize=8;endSize=8;startArrow=classic;startFill=1;" parent="1" source="sDm5vTPtQ9kXyRebXaco-2296" target="sDm5vTPtQ9kXyRebXaco-2292" edge="1">
          <mxGeometry relative="1" as="geometry" />
        </mxCell>
        <mxCell id="sDm5vTPtQ9kXyRebXaco-2325" style="edgeStyle=none;curved=1;rounded=0;orthogonalLoop=1;jettySize=auto;html=1;exitX=0;exitY=0.5;exitDx=0;exitDy=0;exitPerimeter=0;entryX=1;entryY=0.5;entryDx=0;entryDy=0;entryPerimeter=0;fontSize=12;startSize=8;endSize=8;startArrow=classic;startFill=1;" parent="1" source="sDm5vTPtQ9kXyRebXaco-2301" target="sDm5vTPtQ9kXyRebXaco-2296" edge="1">
          <mxGeometry relative="1" as="geometry" />
        </mxCell>
        <mxCell id="sDm5vTPtQ9kXyRebXaco-2326" style="edgeStyle=none;curved=1;rounded=0;orthogonalLoop=1;jettySize=auto;html=1;exitX=0;exitY=0.5;exitDx=0;exitDy=0;exitPerimeter=0;entryX=1;entryY=0;entryDx=0;entryDy=0;entryPerimeter=0;fontSize=12;startSize=8;endSize=8;startArrow=classic;startFill=1;" parent="1" source="sDm5vTPtQ9kXyRebXaco-2293" target="sDm5vTPtQ9kXyRebXaco-2301" edge="1">
          <mxGeometry relative="1" as="geometry" />
        </mxCell>
        <mxCell id="sDm5vTPtQ9kXyRebXaco-2330" style="edgeStyle=none;curved=1;rounded=0;orthogonalLoop=1;jettySize=auto;html=1;exitX=0.16;exitY=0.5;exitDx=0;exitDy=0;exitPerimeter=0;entryX=0;entryY=0.98;entryDx=0;entryDy=0;entryPerimeter=0;fontSize=12;startSize=8;endSize=8;startArrow=classic;startFill=1;" parent="1" source="sDm5vTPtQ9kXyRebXaco-2311" target="sDm5vTPtQ9kXyRebXaco-2301" edge="1">
          <mxGeometry relative="1" as="geometry" />
        </mxCell>
        <mxCell id="sDm5vTPtQ9kXyRebXaco-2331" style="edgeStyle=none;curved=1;rounded=0;orthogonalLoop=1;jettySize=auto;html=1;exitX=0;exitY=0.5;exitDx=0;exitDy=0;entryX=1;entryY=0.5;entryDx=0;entryDy=0;entryPerimeter=0;fontSize=12;startSize=8;endSize=8;" parent="1" source="sDm5vTPtQ9kXyRebXaco-2303" target="sDm5vTPtQ9kXyRebXaco-2288" edge="1">
          <mxGeometry relative="1" as="geometry" />
        </mxCell>
        <mxCell id="sDm5vTPtQ9kXyRebXaco-2335" value="" style="edgeStyle=none;curved=1;rounded=0;orthogonalLoop=1;jettySize=auto;html=1;fontSize=12;startSize=8;endSize=8;" parent="1" source="sDm5vTPtQ9kXyRebXaco-2333" target="sDm5vTPtQ9kXyRebXaco-2283" edge="1">
          <mxGeometry relative="1" as="geometry" />
        </mxCell>
        <mxCell id="sDm5vTPtQ9kXyRebXaco-2333" value="IDS" style="text;html=1;align=center;verticalAlign=middle;resizable=0;points=[];autosize=1;strokeColor=none;fillColor=none;fontSize=16;" parent="1" vertex="1">
          <mxGeometry x="175.14" y="-584" width="50" height="30" as="geometry" />
        </mxCell>
        <mxCell id="sDm5vTPtQ9kXyRebXaco-2336" value="" style="endArrow=classic;html=1;rounded=0;fontSize=12;startSize=8;endSize=8;curved=1;" parent="1" edge="1">
          <mxGeometry width="50" height="50" relative="1" as="geometry">
            <mxPoint x="200.57999999999998" y="-640" as="sourcePoint" />
            <mxPoint x="200.57999999999998" y="-590" as="targetPoint" />
          </mxGeometry>
        </mxCell>
        <mxCell id="sDm5vTPtQ9kXyRebXaco-2337" value="" style="endArrow=classic;html=1;rounded=0;fontSize=12;startSize=8;endSize=8;curved=1;entryX=0.085;entryY=0.08;entryDx=0;entryDy=0;entryPerimeter=0;" parent="1" target="sDm5vTPtQ9kXyRebXaco-2312" edge="1">
          <mxGeometry width="50" height="50" relative="1" as="geometry">
            <mxPoint x="200.57999999999998" y="-560" as="sourcePoint" />
            <mxPoint x="200.57999999999998" y="-510" as="targetPoint" />
          </mxGeometry>
        </mxCell>
        <mxCell id="sDm5vTPtQ9kXyRebXaco-2339" value="IDS" style="text;html=1;align=center;verticalAlign=middle;resizable=0;points=[];autosize=1;strokeColor=none;fillColor=none;fontSize=16;" parent="1" vertex="1">
          <mxGeometry x="530.45" y="-594.5" width="50" height="30" as="geometry" />
        </mxCell>
        <mxCell id="sDm5vTPtQ9kXyRebXaco-2340" value="" style="endArrow=classic;html=1;rounded=0;fontSize=12;startSize=8;endSize=8;curved=1;" parent="1" edge="1">
          <mxGeometry width="50" height="50" relative="1" as="geometry">
            <mxPoint x="555.89" y="-650.5" as="sourcePoint" />
            <mxPoint x="555.89" y="-600.5" as="targetPoint" />
          </mxGeometry>
        </mxCell>
        <mxCell id="sDm5vTPtQ9kXyRebXaco-2341" style="edgeStyle=none;curved=1;rounded=0;orthogonalLoop=1;jettySize=auto;html=1;exitX=0.001;exitY=1.053;exitDx=0;exitDy=0;exitPerimeter=0;fontSize=12;startSize=8;endSize=8;" parent="1" source="sDm5vTPtQ9kXyRebXaco-2339" target="sDm5vTPtQ9kXyRebXaco-2312" edge="1">
          <mxGeometry relative="1" as="geometry">
            <mxPoint x="598.58" y="-623" as="sourcePoint" />
            <mxPoint x="457.58" y="-380" as="targetPoint" />
          </mxGeometry>
        </mxCell>
        <mxCell id="sDm5vTPtQ9kXyRebXaco-2342" value="" style="shape=mxgraph.cisco.misc.ace;sketch=0;html=1;pointerEvents=1;dashed=0;fillColor=#036897;strokeColor=#ffffff;strokeWidth=2;verticalLabelPosition=bottom;verticalAlign=top;align=center;outlineConnect=0;" parent="1" vertex="1">
          <mxGeometry x="502" y="-1315.1" width="90" height="64" as="geometry" />
        </mxCell>
        <mxCell id="sDm5vTPtQ9kXyRebXaco-2345" value="APP" style="swimlane;container=0;startSize=23;" parent="1" vertex="1" collapsed="1">
          <mxGeometry x="406" y="-1293.75" width="53" height="26.5" as="geometry">
            <mxRectangle x="149.90999999999997" y="273.5" width="40" height="50" as="alternateBounds" />
          </mxGeometry>
        </mxCell>
        <mxCell id="sDm5vTPtQ9kXyRebXaco-2349" value="" style="shape=mxgraph.cisco.servers.storage_server;sketch=0;html=1;pointerEvents=1;dashed=0;fillColor=#036897;strokeColor=#ffffff;strokeWidth=2;verticalLabelPosition=bottom;verticalAlign=top;align=center;outlineConnect=0;" parent="1" vertex="1">
          <mxGeometry x="538" y="-387.3" width="54" height="83" as="geometry" />
        </mxCell>
        <mxCell id="sDm5vTPtQ9kXyRebXaco-2356" value="" style="edgeStyle=none;curved=1;rounded=0;orthogonalLoop=1;jettySize=auto;html=1;fontSize=12;startSize=8;endSize=8;exitX=1;exitY=0.5;exitDx=0;exitDy=0;exitPerimeter=0;startArrow=classic;startFill=1;" parent="1" source="ppVQWipgP5uERmSSBe8D-2261" target="sDm5vTPtQ9kXyRebXaco-2349" edge="1">
          <mxGeometry relative="1" as="geometry">
            <mxPoint x="468.94000000000005" y="-384.19298092959207" as="sourcePoint" />
          </mxGeometry>
        </mxCell>
        <mxCell id="sDm5vTPtQ9kXyRebXaco-2357" value="" style="shape=mxgraph.cisco.misc.ace;sketch=0;html=1;pointerEvents=1;dashed=0;fillColor=#036897;strokeColor=#ffffff;strokeWidth=2;verticalLabelPosition=bottom;verticalAlign=top;align=center;outlineConnect=0;" parent="1" vertex="1">
          <mxGeometry x="232.71" y="-844" width="40.78" height="29" as="geometry" />
        </mxCell>
        <mxCell id="sDm5vTPtQ9kXyRebXaco-2358" value="" style="pointerEvents=1;shadow=0;dashed=0;html=1;strokeColor=none;fillColor=#4495D1;labelPosition=center;verticalLabelPosition=bottom;verticalAlign=top;align=center;outlineConnect=0;shape=mxgraph.veeam.cluster;" parent="1" vertex="1">
          <mxGeometry x="280.48999999999995" y="-804" width="61.01" height="29.2" as="geometry" />
        </mxCell>
        <mxCell id="sDm5vTPtQ9kXyRebXaco-2359" value="" style="shape=mxgraph.cisco.servers.storage_server;sketch=0;html=1;pointerEvents=1;dashed=0;fillColor=#036897;strokeColor=#ffffff;strokeWidth=2;verticalLabelPosition=bottom;verticalAlign=top;align=center;outlineConnect=0;" parent="1" vertex="1">
          <mxGeometry x="208.49" y="-774.8" width="27.98" height="43" as="geometry" />
        </mxCell>
        <mxCell id="sDm5vTPtQ9kXyRebXaco-2360" value="HIDS" style="text;html=1;align=center;verticalAlign=middle;resizable=0;points=[];autosize=1;strokeColor=none;fillColor=none;fontSize=16;" parent="1" vertex="1">
          <mxGeometry x="397.58" y="-750" width="60" height="30" as="geometry" />
        </mxCell>
        <mxCell id="sDm5vTPtQ9kXyRebXaco-2361" value="HIDS" style="text;html=1;align=center;verticalAlign=middle;resizable=0;points=[];autosize=1;strokeColor=none;fillColor=none;fontSize=16;" parent="1" vertex="1">
          <mxGeometry x="393.94" y="-574" width="60" height="30" as="geometry" />
        </mxCell>
        <mxCell id="sDm5vTPtQ9kXyRebXaco-2362" value="HIDS" style="text;html=1;align=center;verticalAlign=middle;resizable=0;points=[];autosize=1;strokeColor=none;fillColor=none;fontSize=16;" parent="1" vertex="1">
          <mxGeometry x="739.5799999999999" y="-670.65" width="60" height="30" as="geometry" />
        </mxCell>
        <mxCell id="sDm5vTPtQ9kXyRebXaco-2363" value="HIDS" style="text;html=1;align=center;verticalAlign=middle;resizable=0;points=[];autosize=1;strokeColor=none;fillColor=none;fontSize=16;" parent="1" vertex="1">
          <mxGeometry x="741.62" y="-609" width="60" height="30" as="geometry" />
        </mxCell>
        <mxCell id="sDm5vTPtQ9kXyRebXaco-2364" value="HIDS" style="text;html=1;align=center;verticalAlign=middle;resizable=0;points=[];autosize=1;strokeColor=none;fillColor=none;fontSize=16;" parent="1" vertex="1">
          <mxGeometry x="734.5799999999999" y="-722.5" width="60" height="30" as="geometry" />
        </mxCell>
        <mxCell id="sDm5vTPtQ9kXyRebXaco-2365" value="HIDS" style="text;html=1;align=center;verticalAlign=middle;resizable=0;points=[];autosize=1;strokeColor=none;fillColor=none;fontSize=16;" parent="1" vertex="1">
          <mxGeometry x="695.72" y="-561.5" width="60" height="30" as="geometry" />
        </mxCell>
        <mxCell id="sDm5vTPtQ9kXyRebXaco-2366" value="HIDS" style="text;html=1;align=center;verticalAlign=middle;resizable=0;points=[];autosize=1;strokeColor=none;fillColor=none;fontSize=16;" parent="1" vertex="1">
          <mxGeometry x="679.5799999999999" y="-460" width="60" height="30" as="geometry" />
        </mxCell>
        <mxCell id="sDm5vTPtQ9kXyRebXaco-2367" value="Cluster ElasticSearch" style="pointerEvents=1;shadow=0;dashed=0;html=1;strokeColor=none;fillColor=#4495D1;labelPosition=center;verticalLabelPosition=bottom;verticalAlign=top;align=center;outlineConnect=0;shape=mxgraph.veeam.cluster;" parent="1" vertex="1">
          <mxGeometry x="189.07" y="-283.1" width="102.8" height="49.2" as="geometry" />
        </mxCell>
        <mxCell id="ppVQWipgP5uERmSSBe8D-2257" value="" style="shape=mxgraph.cisco.servers.storage_server;sketch=0;html=1;pointerEvents=1;dashed=0;fillColor=#036897;strokeColor=#ffffff;strokeWidth=2;verticalLabelPosition=bottom;verticalAlign=top;align=center;outlineConnect=0;" vertex="1" parent="1">
          <mxGeometry x="535.58" y="-296.5" width="54" height="83" as="geometry" />
        </mxCell>
        <mxCell id="ppVQWipgP5uERmSSBe8D-2258" value="" style="shape=mxgraph.cisco.servers.storage_server;sketch=0;html=1;pointerEvents=1;dashed=0;fillColor=#036897;strokeColor=#ffffff;strokeWidth=2;verticalLabelPosition=bottom;verticalAlign=top;align=center;outlineConnect=0;" vertex="1" parent="1">
          <mxGeometry x="535.58" y="-200" width="54" height="83" as="geometry" />
        </mxCell>
        <mxCell id="ppVQWipgP5uERmSSBe8D-2259" value="" style="shape=mxgraph.cisco.computers_and_peripherals.ibm_mainframe;sketch=0;html=1;pointerEvents=1;dashed=0;fillColor=#036897;strokeColor=#ffffff;strokeWidth=2;verticalLabelPosition=bottom;verticalAlign=top;align=center;outlineConnect=0;" vertex="1" parent="1">
          <mxGeometry x="416" y="-193.5" width="50" height="70" as="geometry" />
        </mxCell>
        <mxCell id="ppVQWipgP5uERmSSBe8D-2260" value="" style="shape=mxgraph.cisco.computers_and_peripherals.ibm_mainframe;sketch=0;html=1;pointerEvents=1;dashed=0;fillColor=#036897;strokeColor=#ffffff;strokeWidth=2;verticalLabelPosition=bottom;verticalAlign=top;align=center;outlineConnect=0;" vertex="1" parent="1">
          <mxGeometry x="418.94" y="-290" width="50" height="70" as="geometry" />
        </mxCell>
        <mxCell id="ppVQWipgP5uERmSSBe8D-2261" value="" style="shape=mxgraph.cisco.computers_and_peripherals.ibm_mainframe;sketch=0;html=1;pointerEvents=1;dashed=0;fillColor=#036897;strokeColor=#ffffff;strokeWidth=2;verticalLabelPosition=bottom;verticalAlign=top;align=center;outlineConnect=0;" vertex="1" parent="1">
          <mxGeometry x="421" y="-380.8" width="50" height="70" as="geometry" />
        </mxCell>
        <mxCell id="ppVQWipgP5uERmSSBe8D-2268" value="Servidor 2" style="text;html=1;align=center;verticalAlign=middle;resizable=0;points=[];autosize=1;strokeColor=none;fillColor=none;" vertex="1" parent="1">
          <mxGeometry x="629" y="-273.5" width="80" height="30" as="geometry" />
        </mxCell>
        <mxCell id="ppVQWipgP5uERmSSBe8D-2269" value="Servidor 1" style="text;html=1;align=center;verticalAlign=middle;resizable=0;points=[];autosize=1;strokeColor=none;fillColor=none;" vertex="1" parent="1">
          <mxGeometry x="631" y="-364" width="80" height="30" as="geometry" />
        </mxCell>
        <mxCell id="ppVQWipgP5uERmSSBe8D-2270" value="Servidor 3" style="text;html=1;align=center;verticalAlign=middle;resizable=0;points=[];autosize=1;strokeColor=none;fillColor=none;" vertex="1" parent="1">
          <mxGeometry x="628" y="-180" width="80" height="30" as="geometry" />
        </mxCell>
        <mxCell id="ppVQWipgP5uERmSSBe8D-2273" value="" style="endArrow=classic;html=1;rounded=0;" edge="1" parent="1">
          <mxGeometry width="50" height="50" relative="1" as="geometry">
            <mxPoint x="340" y="-342" as="sourcePoint" />
            <mxPoint x="380" y="-342" as="targetPoint" />
          </mxGeometry>
        </mxCell>
        <mxCell id="ppVQWipgP5uERmSSBe8D-2274" value="" style="endArrow=classic;html=1;rounded=0;entryX=0.01;entryY=0.734;entryDx=0;entryDy=0;entryPerimeter=0;" edge="1" parent="1" target="ppVQWipgP5uERmSSBe8D-2265">
          <mxGeometry width="50" height="50" relative="1" as="geometry">
            <mxPoint x="337.94" y="-233.9" as="sourcePoint" />
            <mxPoint x="418.94" y="-233.7000000000002" as="targetPoint" />
          </mxGeometry>
        </mxCell>
        <mxCell id="ppVQWipgP5uERmSSBe8D-2276" value="" style="endArrow=classic;startArrow=classic;html=1;rounded=0;fillColor=#f8cecc;strokeColor=#b85450;entryX=0;entryY=0.5;entryDx=0;entryDy=0;entryPerimeter=0;" edge="1" parent="1" source="sDm5vTPtQ9kXyRebXaco-2367" target="ppVQWipgP5uERmSSBe8D-2260">
          <mxGeometry width="50" height="50" relative="1" as="geometry">
            <mxPoint x="203.32" y="-117" as="sourcePoint" />
            <mxPoint x="253.32" y="-167" as="targetPoint" />
          </mxGeometry>
        </mxCell>
        <mxCell id="ppVQWipgP5uERmSSBe8D-2277" value="" style="endArrow=classic;html=1;rounded=0;fillColor=#f8cecc;strokeColor=#b85450;" edge="1" parent="1" target="ppVQWipgP5uERmSSBe8D-2261">
          <mxGeometry width="50" height="50" relative="1" as="geometry">
            <mxPoint x="360" y="-360" as="sourcePoint" />
            <mxPoint x="285" y="-150" as="targetPoint" />
          </mxGeometry>
        </mxCell>
        <mxCell id="ppVQWipgP5uERmSSBe8D-2278" value="" style="endArrow=classic;html=1;rounded=0;fillColor=#f8cecc;strokeColor=#b85450;" edge="1" parent="1" target="ppVQWipgP5uERmSSBe8D-2259">
          <mxGeometry width="50" height="50" relative="1" as="geometry">
            <mxPoint x="360" y="-170" as="sourcePoint" />
            <mxPoint x="279.49" y="-113.5" as="targetPoint" />
          </mxGeometry>
        </mxCell>
        <mxCell id="ppVQWipgP5uERmSSBe8D-2279" value="" style="endArrow=none;html=1;rounded=0;fillColor=#f8cecc;strokeColor=#b85450;" edge="1" parent="1">
          <mxGeometry width="50" height="50" relative="1" as="geometry">
            <mxPoint x="360" y="-170" as="sourcePoint" />
            <mxPoint x="360" y="-360" as="targetPoint" />
          </mxGeometry>
        </mxCell>
        <mxCell id="ppVQWipgP5uERmSSBe8D-2280" value="" style="edgeStyle=none;curved=1;rounded=0;orthogonalLoop=1;jettySize=auto;html=1;fontSize=12;startSize=8;endSize=8;exitX=1;exitY=0.5;exitDx=0;exitDy=0;exitPerimeter=0;startArrow=classic;startFill=1;" edge="1" parent="1">
          <mxGeometry relative="1" as="geometry">
            <mxPoint x="468.94" y="-255.5" as="sourcePoint" />
            <mxPoint x="535.94" y="-255.5" as="targetPoint" />
          </mxGeometry>
        </mxCell>
        <mxCell id="ppVQWipgP5uERmSSBe8D-2281" value="" style="edgeStyle=none;curved=1;rounded=0;orthogonalLoop=1;jettySize=auto;html=1;fontSize=12;startSize=8;endSize=8;exitX=1;exitY=0.5;exitDx=0;exitDy=0;exitPerimeter=0;startArrow=classic;startFill=1;" edge="1" parent="1">
          <mxGeometry relative="1" as="geometry">
            <mxPoint x="471.5" y="-165.5" as="sourcePoint" />
            <mxPoint x="538.5" y="-165.5" as="targetPoint" />
          </mxGeometry>
        </mxCell>
        <mxCell id="ppVQWipgP5uERmSSBe8D-2282" value="Cluster&amp;nbsp;&lt;div&gt;GrayLog&lt;/div&gt;" style="text;html=1;align=center;verticalAlign=middle;resizable=0;points=[];autosize=1;strokeColor=none;fillColor=none;" vertex="1" parent="1">
          <mxGeometry x="415" y="-440" width="70" height="40" as="geometry" />
        </mxCell>
        <mxCell id="ppVQWipgP5uERmSSBe8D-2283" value="MongoDB&lt;div&gt;Replica Set&lt;/div&gt;" style="text;html=1;align=center;verticalAlign=middle;resizable=0;points=[];autosize=1;strokeColor=none;fillColor=none;" vertex="1" parent="1">
          <mxGeometry x="527.58" y="-440" width="80" height="40" as="geometry" />
        </mxCell>
        <mxCell id="ppVQWipgP5uERmSSBe8D-2284" value="TCP:&lt;div&gt;5044&lt;/div&gt;&lt;div&gt;5414&lt;/div&gt;&lt;div&gt;9000&lt;/div&gt;" style="text;html=1;align=center;verticalAlign=middle;resizable=0;points=[];autosize=1;strokeColor=none;fillColor=none;" vertex="1" parent="1">
          <mxGeometry x="291.5" y="-430" width="50" height="70" as="geometry" />
        </mxCell>
        <mxCell id="ppVQWipgP5uERmSSBe8D-2395" value="" style="rounded=0;whiteSpace=wrap;html=1;imageWidth=178;imageHeight=400;arcSize=12;resizable=1;imageAspect=1;fillOpacity=0;" vertex="1" parent="1">
          <mxGeometry x="1380.5" y="-1055.5" width="285" height="400" as="geometry" />
        </mxCell>
        <mxCell id="ppVQWipgP5uERmSSBe8D-2396" value="" style="rounded=0;whiteSpace=wrap;html=1;imageWidth=178;imageHeight=400;arcSize=12;resizable=1;imageAspect=1;fillOpacity=0;" vertex="1" parent="1">
          <mxGeometry x="1160.5" y="-1054.5" width="100" height="400" as="geometry" />
        </mxCell>
        <mxCell id="ppVQWipgP5uERmSSBe8D-2397" value="" style="rounded=0;whiteSpace=wrap;html=1;imageWidth=178;imageHeight=400;arcSize=12;resizable=1;imageAspect=1;fillOpacity=0;" vertex="1" parent="1">
          <mxGeometry x="847.5" y="-1060.5" width="180" height="400" as="geometry" />
        </mxCell>
        <mxCell id="ppVQWipgP5uERmSSBe8D-2398" value="" style="image;html=1;image=img/lib/clip_art/networking/Firewall_128x128.png" vertex="1" parent="1">
          <mxGeometry x="921.5" y="-966.5" width="35" height="35" as="geometry" />
        </mxCell>
        <mxCell id="ppVQWipgP5uERmSSBe8D-2399" value="" style="image;html=1;image=img/lib/clip_art/networking/Router_Icon_128x128.png;fontStyle=1" vertex="1" parent="1">
          <mxGeometry x="1398.5" y="-899.25" width="46.6" height="52.5" as="geometry" />
        </mxCell>
        <mxCell id="ppVQWipgP5uERmSSBe8D-2400" value="" style="edgeStyle=orthogonalEdgeStyle;rounded=0;orthogonalLoop=1;jettySize=auto;html=1;" edge="1" parent="1" source="ppVQWipgP5uERmSSBe8D-2406" target="ppVQWipgP5uERmSSBe8D-2398">
          <mxGeometry relative="1" as="geometry" />
        </mxCell>
        <mxCell id="ppVQWipgP5uERmSSBe8D-2401" value="192.168.0.0/24" style="text;html=1;align=center;verticalAlign=middle;whiteSpace=wrap;rounded=0;" vertex="1" parent="1">
          <mxGeometry x="1177.5" y="-654.5" width="60" height="30" as="geometry" />
        </mxCell>
        <mxCell id="ppVQWipgP5uERmSSBe8D-2402" value="10.0.0.0/24" style="text;html=1;align=center;verticalAlign=middle;whiteSpace=wrap;rounded=0;" vertex="1" parent="1">
          <mxGeometry x="1398.5" y="-654.5" width="60" height="30" as="geometry" />
        </mxCell>
        <mxCell id="ppVQWipgP5uERmSSBe8D-2403" value="" style="image;points=[];aspect=fixed;html=1;align=center;shadow=0;dashed=0;image=img/lib/allied_telesis/computer_and_terminals/Personal_Computer_with_Server.svg;" vertex="1" parent="1">
          <mxGeometry x="1528.5" y="-710.3" width="38.2" height="38.2" as="geometry" />
        </mxCell>
        <mxCell id="ppVQWipgP5uERmSSBe8D-2404" value="" style="strokeColor=#666666;html=1;labelPosition=right;align=left;spacingLeft=15;shadow=0;dashed=0;outlineConnect=0;shape=mxgraph.rack.general.switches_2;" vertex="1" parent="1">
          <mxGeometry x="1406.7" y="-812.5" width="160" height="30" as="geometry" />
        </mxCell>
        <mxCell id="ppVQWipgP5uERmSSBe8D-2405" value="" style="image;html=1;image=img/lib/clip_art/computers/Laptop_128x128.png" vertex="1" parent="1">
          <mxGeometry x="983.5" y="-700.5" width="33" height="30" as="geometry" />
        </mxCell>
        <mxCell id="ppVQWipgP5uERmSSBe8D-2406" value="" style="image;aspect=fixed;perimeter=ellipsePerimeter;html=1;align=center;shadow=0;dashed=0;spacingTop=3;image=img/lib/active_directory/internet_cloud.svg;" vertex="1" parent="1">
          <mxGeometry x="888.5" y="-1054.5" width="100" height="63" as="geometry" />
        </mxCell>
        <UserObject label="" link="192.168.0.3-254" id="ppVQWipgP5uERmSSBe8D-2407">
          <mxCell style="sketch=0;aspect=fixed;pointerEvents=1;shadow=0;dashed=0;html=1;strokeColor=none;labelPosition=center;verticalLabelPosition=bottom;verticalAlign=top;align=center;fillColor=#00188D;shape=mxgraph.mscae.enterprise.server_generic" vertex="1" parent="1">
            <mxGeometry x="1195.5" y="-784.5" width="24" height="50" as="geometry" />
          </mxCell>
        </UserObject>
        <mxCell id="ppVQWipgP5uERmSSBe8D-2408" value="" style="sketch=0;aspect=fixed;pointerEvents=1;shadow=0;dashed=0;html=1;strokeColor=none;labelPosition=center;verticalLabelPosition=bottom;verticalAlign=top;align=center;fillColor=#00188D;shape=mxgraph.mscae.enterprise.server_farm" vertex="1" parent="1">
          <mxGeometry x="913.5" y="-1046.15" width="50" height="32" as="geometry" />
        </mxCell>
        <mxCell id="ppVQWipgP5uERmSSBe8D-2409" value="" style="edgeStyle=orthogonalEdgeStyle;rounded=0;orthogonalLoop=1;jettySize=auto;html=1;" edge="1" parent="1" source="ppVQWipgP5uERmSSBe8D-2410" target="ppVQWipgP5uERmSSBe8D-2418">
          <mxGeometry relative="1" as="geometry" />
        </mxCell>
        <mxCell id="ppVQWipgP5uERmSSBe8D-2410" value="" style="image;html=1;image=img/lib/clip_art/networking/Router_Icon_128x128.png;direction=east;" vertex="1" parent="1">
          <mxGeometry x="908.5" y="-774.5" width="60" height="60" as="geometry" />
        </mxCell>
        <mxCell id="ppVQWipgP5uERmSSBe8D-2411" style="edgeStyle=orthogonalEdgeStyle;rounded=0;orthogonalLoop=1;jettySize=auto;html=1;exitX=1;exitY=0.5;exitDx=0;exitDy=0;startArrow=classic;startFill=1;" edge="1" parent="1" source="ppVQWipgP5uERmSSBe8D-2412" target="ppVQWipgP5uERmSSBe8D-2462">
          <mxGeometry relative="1" as="geometry" />
        </mxCell>
        <mxCell id="ppVQWipgP5uERmSSBe8D-2412" value="" style="image;aspect=fixed;perimeter=ellipsePerimeter;html=1;align=center;shadow=0;dashed=0;spacingTop=3;image=img/lib/active_directory/internet_cloud.svg;" vertex="1" parent="1">
          <mxGeometry x="898.8199999999999" y="-904.5" width="79.37" height="50" as="geometry" />
        </mxCell>
        <mxCell id="ppVQWipgP5uERmSSBe8D-2413" value="" style="endArrow=classic;startArrow=classic;html=1;rounded=0;" edge="1" parent="1" source="ppVQWipgP5uERmSSBe8D-2412" target="ppVQWipgP5uERmSSBe8D-2398">
          <mxGeometry width="50" height="50" relative="1" as="geometry">
            <mxPoint x="933.5" y="-865.5" as="sourcePoint" />
            <mxPoint x="983.5" y="-915.5" as="targetPoint" />
          </mxGeometry>
        </mxCell>
        <mxCell id="ppVQWipgP5uERmSSBe8D-2414" value="" style="image;html=1;image=img/lib/clip_art/networking/Firewall_128x128.png" vertex="1" parent="1">
          <mxGeometry x="918.5" y="-830.5" width="35" height="35" as="geometry" />
        </mxCell>
        <mxCell id="ppVQWipgP5uERmSSBe8D-2415" value="" style="endArrow=classic;startArrow=classic;html=1;rounded=0;" edge="1" parent="1" source="ppVQWipgP5uERmSSBe8D-2414" target="ppVQWipgP5uERmSSBe8D-2412">
          <mxGeometry width="50" height="50" relative="1" as="geometry">
            <mxPoint x="948.5" y="-880.5" as="sourcePoint" />
            <mxPoint x="943.5" y="-870.5" as="targetPoint" />
          </mxGeometry>
        </mxCell>
        <mxCell id="ppVQWipgP5uERmSSBe8D-2416" value="" style="endArrow=classic;startArrow=classic;html=1;rounded=0;" edge="1" parent="1" source="ppVQWipgP5uERmSSBe8D-2410" target="ppVQWipgP5uERmSSBe8D-2414">
          <mxGeometry width="50" height="50" relative="1" as="geometry">
            <mxPoint x="948.5" y="-810.5" as="sourcePoint" />
            <mxPoint x="948.5" y="-840.5" as="targetPoint" />
          </mxGeometry>
        </mxCell>
        <mxCell id="ppVQWipgP5uERmSSBe8D-2417" value="" style="endArrow=classic;startArrow=classic;html=1;rounded=0;exitX=0.212;exitY=0.267;exitDx=0;exitDy=0;exitPerimeter=0;" edge="1" parent="1" source="ppVQWipgP5uERmSSBe8D-2405" target="ppVQWipgP5uERmSSBe8D-2410">
          <mxGeometry width="50" height="50" relative="1" as="geometry">
            <mxPoint x="948.5" y="-747.5" as="sourcePoint" />
            <mxPoint x="948.5" y="-772.5" as="targetPoint" />
          </mxGeometry>
        </mxCell>
        <mxCell id="ppVQWipgP5uERmSSBe8D-2418" value="" style="shape=image;html=1;verticalAlign=top;verticalLabelPosition=bottom;labelBackgroundColor=#ffffff;imageAspect=0;aspect=fixed;image=https://cdn4.iconfinder.com/data/icons/iphone-calculator-shopping-report/128/iPhone.png" vertex="1" parent="1">
          <mxGeometry x="923.5" y="-695.5" width="30" height="30" as="geometry" />
        </mxCell>
        <mxCell id="ppVQWipgP5uERmSSBe8D-2419" value="" style="endArrow=classic;startArrow=classic;html=1;rounded=0;" edge="1" parent="1" source="ppVQWipgP5uERmSSBe8D-2418" target="ppVQWipgP5uERmSSBe8D-2410">
          <mxGeometry width="50" height="50" relative="1" as="geometry">
            <mxPoint x="1000.5" y="-682.5" as="sourcePoint" />
            <mxPoint x="978.5" y="-697.5" as="targetPoint" />
          </mxGeometry>
        </mxCell>
        <mxCell id="ppVQWipgP5uERmSSBe8D-2420" value="User" style="shape=image;editableCssRules=.*;verticalLabelPosition=bottom;labelBackgroundColor=none;verticalAlign=top;aspect=fixed;imageAspect=0;image=data:image/svg+xml,PHN2ZyB4bWxucz0iaHR0cDovL3d3dy53My5vcmcvMjAwMC9zdmciIHZpZXdCb3g9Ii0wLjUgLTAuNSAyOCAyOCIgaGVpZ2h0PSIyOCIgd2lkdGg9IjI4Ij4mI3hhOwkgIDxzdHlsZSB0eXBlPSJ0ZXh0L2NzcyI+LnN0MCB7IHN0b3AtY29sb3I6IHJnYig5MSwgMTE1LCAxMzkpOyB9IC5zdDEgeyBzdG9wLWNvbG9yOiByZ2IoMzQsIDUzLCA3Mik7IH0gPC9zdHlsZT4mI3hhOwk8ZGVmcz4mI3hhOwkJPGxpbmVhckdyYWRpZW50IGdyYWRpZW50VW5pdHM9InVzZXJTcGFjZU9uVXNlIiB5Mj0iMjUuMzA5IiB4Mj0iMjMuNDU0IiB5MT0iMy40NzQiIHgxPSIyLjAzOSIgaWQ9IkEiPiYjeGE7CQkJPHN0b3AgY2xhc3M9InN0MCIvPiYjeGE7CQkJPHN0b3AgY2xhc3M9InN0MSIgb2Zmc2V0PSIxIi8+JiN4YTsJCTwvbGluZWFyR3JhZGllbnQ+JiN4YTsJPC9kZWZzPiYjeGE7CTxwYXRoIGZpbGw9InVybCgjQSkiIGQ9Ik0tLjUgMTMuNDcyYzAtMS45My4zNzEtMy43MyAxLjExMy01LjQuNzQyLTEuNzA3IDEuNzQ0LTMuMTkyIDMuMDA2LTQuNDUzUzYuMzY1IDEuMzU2IDguMDczLjYxMyAxMS41OTgtLjUgMTMuNTI4LS41czMuNzMuMzcxIDUuNCAxLjExM2MxLjcwNy43NDIgMy4xOTIgMS43NDQgNC40NTMgMy4wMDZzMi4yNjQgMi43NDYgMy4wMDYgNC40NTNjLjc0MiAxLjY3IDEuMTEzIDMuNDcgMS4xMTMgNS40cy0uMzcxIDMuNzQ4LTEuMTEzIDUuNDU1LTEuNzQ0IDMuMTkyLTMuMDA2IDQuNDUzYTE0LjI4IDE0LjI4IDAgMCAxLTQuNDUzIDMuMDA2Yy0xLjY3Ljc0Mi0zLjQ3IDEuMTEzLTUuNCAxLjExM3MtMy43NDgtLjM3MS01LjQ1NS0xLjExM2ExNC4yOCAxNC4yOCAwIDAgMS00LjQ1My0zLjAwNiAxNC4yOCAxNC4yOCAwIDAgMS0zLjAwNi00LjQ1M0MtLjEyOSAxNy4yMi0uNSAxNS40MDItLjUgMTMuNDcyem0xNi44MTEgNC4yMzFhNi42NSA2LjY1IDAgMCAxIDMuMjg0LjgzNWMxLjAwMi41MiAxLjgxOCAxLjI0MyAyLjQ0OSAyLjE3MWExMC4xNCAxMC4xNCAwIDAgMCAxLjk0OC0zLjI4NGMuNDgyLTEuMjI1LjcyNC0yLjU0Mi43MjQtMy45NTIgMC0xLjU1OS0uMjk3LTMuMDA2LS44OTEtNC4zNDItLjU5NC0xLjM3My0xLjM5Mi0yLjU2MS0yLjM5NC0zLjU2M3MtMi4xOS0xLjgtMy41NjMtMi4zOTRjLTEuMzM2LS41OTQtMi43ODMtLjg5MS00LjM0Mi0uODkxcy0zLjAyNC4yOTctNC4zOTguODkxYy0xLjMzNi41OTQtMi41MjQgMS4zOTItMy41NjMgMi4zOTRBMTEuMzUgMTEuMzUgMCAwIDAgMy4xNzQgOS4xM2MtLjU5NCAxLjMzNi0uODkxIDIuNzgzLS44OTEgNC4zNDIgMCAxLjQxLjIyMyAyLjcyOC42NjggMy45NTIuNDgyIDEuMjI1IDEuMTUgMi4zMTkgMi4wMDQgMy4yODQuNjMxLS45MjggMS40NDctMS42NTEgMi40NDktMi4xNzFhNi42NSA2LjY1IDAgMCAxIDMuMjg0LS44MzV6bTIuNzgzLTcuMDE0YTUuNjggNS42OCAwIDAgMS0uNDQ1IDIuMjI3IDUuODcgNS44NyAwIDAgMS0xLjIyNSAxLjc4MWMtLjQ4Mi40ODItMS4wNTguODcyLTEuNzI2IDEuMTY5cy0xLjM5Mi40NDUtMi4xNzEuNDQ1YTUuNjggNS42OCAwIDAgMS0yLjIyNy0uNDQ1IDYuNDQgNi40NCAwIDAgMS0xLjc4MS0xLjE2OSA2LjQ0IDYuNDQgMCAwIDEtMS4xNjktMS43ODEgNS42OCA1LjY4IDAgMCAxLS40NDUtMi4yMjdjMC0uNzc5LjE0OC0xLjUwMy40NDUtMi4xNzFBNi40NCA2LjQ0IDAgMCAxIDkuNTIgNi43MzdhNS44NyA1Ljg3IDAgMCAxIDEuNzgxLTEuMjI1IDUuNjggNS42OCAwIDAgMSAyLjIyNy0uNDQ1Yy43NzkgMCAxLjUwMy4xNDggMi4xNzEuNDQ1czEuMjQzLjcwNSAxLjcyNiAxLjIyNWE1Ljg3IDUuODcgMCAwIDEgMS4yMjUgMS43ODFjLjI5Ny42NjguNDQ1IDEuMzkyLjQ0NSAyLjE3MXptLTIuNzgzIDBjMC0uNzc5LS4yNzgtMS40MjktLjgzNS0xLjk0OC0uNTU3LS41NTctMS4yMDYtLjgzNS0xLjk0OC0uODM1YTIuNzMgMi43MyAwIDAgMC0yLjAwNC44MzVjLS41NTcuNTItLjgzNSAxLjE2OS0uODM1IDEuOTQ4YTIuNzMgMi43MyAwIDAgMCAuODM1IDIuMDA0Yy41NTcuNTIgMS4yMjUuNzc5IDIuMDA0Ljc3OS43NDIgMCAxLjM5Mi0uMjYgMS45NDgtLjc3OWEyLjczIDIuNzMgMCAwIDAgLjgzNS0yLjAwNHpNNy4wNzEgMjIuNjU3Yy44OTEuNjMxIDEuODc0IDEuMTMyIDIuOTUgMS41MDMgMS4xMTMuMzcxIDIuMjgyLjU1NyAzLjUwNy41NTcgMS4xODggMCAyLjMxOS0uMTg2IDMuMzk2LS41NTcgMS4xMTMtLjM3MSAyLjExNS0uODcyIDMuMDA2LTEuNTAzLS4zNzEtLjY2OC0uODkxLTEuMTg4LTEuNTU5LTEuNTU5LS42MzEtLjQwOC0xLjMxNy0uNjEyLTIuMDYtLjYxMmgtNS42MjJjLS43NDIgMC0xLjQ0Ny4yMDQtMi4xMTUuNjEyLS42MzEuMzcxLTEuMTMyLjg5MS0xLjUwMyAxLjU1OXoiLz4mI3hhOzwvc3ZnPg==;fontSize=14;fontStyle=1;fontColor=#1D2D3E;" vertex="1" parent="1">
          <mxGeometry x="863.5" y="-701.82" width="15.32" height="15.32" as="geometry" />
        </mxCell>
        <mxCell id="ppVQWipgP5uERmSSBe8D-2421" value="" style="endArrow=classic;startArrow=classic;html=1;rounded=0;" edge="1" parent="1" source="ppVQWipgP5uERmSSBe8D-2420" target="ppVQWipgP5uERmSSBe8D-2410">
          <mxGeometry width="50" height="50" relative="1" as="geometry">
            <mxPoint x="948.5" y="-676.5" as="sourcePoint" />
            <mxPoint x="948.5" y="-695.5" as="targetPoint" />
          </mxGeometry>
        </mxCell>
        <mxCell id="ppVQWipgP5uERmSSBe8D-2422" value="infraestrutura na nuvem&lt;div&gt;&lt;br&gt;&lt;/div&gt;" style="text;html=1;align=center;verticalAlign=middle;resizable=0;points=[];autosize=1;strokeColor=none;fillColor=none;" vertex="1" parent="1">
          <mxGeometry x="866.5" y="-1064.5" width="150" height="40" as="geometry" />
        </mxCell>
        <mxCell id="ppVQWipgP5uERmSSBe8D-2423" value="WAN" style="text;html=1;align=center;verticalAlign=middle;resizable=0;points=[];autosize=1;strokeColor=none;fillColor=none;" vertex="1" parent="1">
          <mxGeometry x="913.5" y="-894.5" width="50" height="30" as="geometry" />
        </mxCell>
        <UserObject label="" link="192.168.0.2-254" id="ppVQWipgP5uERmSSBe8D-2424">
          <mxCell style="sketch=0;aspect=fixed;pointerEvents=1;shadow=0;dashed=0;html=1;strokeColor=none;labelPosition=center;verticalLabelPosition=bottom;verticalAlign=top;align=center;fillColor=#00188D;shape=mxgraph.mscae.enterprise.server_generic" vertex="1" parent="1">
            <mxGeometry x="1195.5" y="-985.5" width="24" height="50" as="geometry" />
          </mxCell>
        </UserObject>
        <mxCell id="ppVQWipgP5uERmSSBe8D-2425" value="DMZ&amp;nbsp;" style="text;html=1;align=center;verticalAlign=middle;resizable=0;points=[];autosize=1;strokeColor=none;fillColor=none;" vertex="1" parent="1">
          <mxGeometry x="1182.5" y="-1048.5" width="50" height="30" as="geometry" />
        </mxCell>
        <mxCell id="ppVQWipgP5uERmSSBe8D-2426" value="Servidor de email" style="text;html=1;align=center;verticalAlign=middle;resizable=0;points=[];autosize=1;strokeColor=none;fillColor=none;" vertex="1" parent="1">
          <mxGeometry x="1149.5" y="-944.5" width="120" height="30" as="geometry" />
        </mxCell>
        <mxCell id="ppVQWipgP5uERmSSBe8D-2427" value="Servidor Web" style="text;html=1;align=center;verticalAlign=middle;resizable=0;points=[];autosize=1;strokeColor=none;fillColor=none;" vertex="1" parent="1">
          <mxGeometry x="1157.5" y="-734.5" width="100" height="30" as="geometry" />
        </mxCell>
        <mxCell id="ppVQWipgP5uERmSSBe8D-2428" value="" style="edgeStyle=orthogonalEdgeStyle;rounded=0;orthogonalLoop=1;jettySize=auto;html=1;" edge="1" parent="1" source="ppVQWipgP5uERmSSBe8D-2429" target="ppVQWipgP5uERmSSBe8D-2462">
          <mxGeometry relative="1" as="geometry" />
        </mxCell>
        <mxCell id="ppVQWipgP5uERmSSBe8D-2429" value="" style="image;html=1;image=img/lib/clip_art/networking/Firewall_128x128.png" vertex="1" parent="1">
          <mxGeometry x="1118.5" y="-897.5" width="35" height="35" as="geometry" />
        </mxCell>
        <mxCell id="ppVQWipgP5uERmSSBe8D-2430" value="" style="endArrow=classic;startArrow=classic;html=1;rounded=0;" edge="1" parent="1" source="ppVQWipgP5uERmSSBe8D-2424" target="ppVQWipgP5uERmSSBe8D-2429">
          <mxGeometry width="50" height="50" relative="1" as="geometry">
            <mxPoint x="1027.5" y="-749.5" as="sourcePoint" />
            <mxPoint x="1153.5" y="-890.5" as="targetPoint" />
          </mxGeometry>
        </mxCell>
        <mxCell id="ppVQWipgP5uERmSSBe8D-2431" value="" style="endArrow=classic;startArrow=classic;html=1;rounded=0;" edge="1" parent="1" source="ppVQWipgP5uERmSSBe8D-2407" target="ppVQWipgP5uERmSSBe8D-2429">
          <mxGeometry width="50" height="50" relative="1" as="geometry">
            <mxPoint x="1037.5" y="-739.5" as="sourcePoint" />
            <mxPoint x="1150.407488986784" y="-855.5" as="targetPoint" />
          </mxGeometry>
        </mxCell>
        <mxCell id="ppVQWipgP5uERmSSBe8D-2432" value="" style="image;html=1;image=img/lib/clip_art/networking/Firewall_128x128.png" vertex="1" parent="1">
          <mxGeometry x="1327.5" y="-887.75" width="35" height="35" as="geometry" />
        </mxCell>
        <mxCell id="ppVQWipgP5uERmSSBe8D-2433" value="" style="endArrow=classic;startArrow=classic;html=1;rounded=0;" edge="1" parent="1" source="ppVQWipgP5uERmSSBe8D-2399" target="ppVQWipgP5uERmSSBe8D-2432">
          <mxGeometry width="50" height="50" relative="1" as="geometry">
            <mxPoint x="1270.5" y="-934.5" as="sourcePoint" />
            <mxPoint x="1367.5" y="-872.2437325905291" as="targetPoint" />
          </mxGeometry>
        </mxCell>
        <mxCell id="ppVQWipgP5uERmSSBe8D-2434" value="" style="endArrow=classic;startArrow=classic;html=1;rounded=0;" edge="1" parent="1" source="ppVQWipgP5uERmSSBe8D-2424" target="ppVQWipgP5uERmSSBe8D-2432">
          <mxGeometry width="50" height="50" relative="1" as="geometry">
            <mxPoint x="1125.5" y="-940.5" as="sourcePoint" />
            <mxPoint x="1083.5" y="-886.5" as="targetPoint" />
          </mxGeometry>
        </mxCell>
        <mxCell id="ppVQWipgP5uERmSSBe8D-2435" value="" style="endArrow=classic;startArrow=classic;html=1;rounded=0;" edge="1" parent="1" source="ppVQWipgP5uERmSSBe8D-2432" target="ppVQWipgP5uERmSSBe8D-2407">
          <mxGeometry width="50" height="50" relative="1" as="geometry">
            <mxPoint x="1135.5" y="-930.5" as="sourcePoint" />
            <mxPoint x="1093.5" y="-876.5" as="targetPoint" />
          </mxGeometry>
        </mxCell>
        <mxCell id="ppVQWipgP5uERmSSBe8D-2436" value="" style="shape=image;html=1;verticalAlign=top;verticalLabelPosition=bottom;labelBackgroundColor=#ffffff;imageAspect=0;aspect=fixed;image=https://cdn4.iconfinder.com/data/icons/iphone-calculator-shopping-report/128/iPhone.png" vertex="1" parent="1">
          <mxGeometry x="1458.5" y="-710.5" width="30" height="30" as="geometry" />
        </mxCell>
        <mxCell id="ppVQWipgP5uERmSSBe8D-2437" value="" style="image;html=1;image=img/lib/clip_art/computers/Laptop_128x128.png" vertex="1" parent="1">
          <mxGeometry x="1588.5" y="-734.5" width="33" height="30" as="geometry" />
        </mxCell>
        <mxCell id="ppVQWipgP5uERmSSBe8D-2438" value="" style="verticalLabelPosition=bottom;sketch=0;aspect=fixed;html=1;verticalAlign=top;strokeColor=none;align=center;outlineConnect=0;shape=mxgraph.citrix.tablet_2;" vertex="1" parent="1">
          <mxGeometry x="1394.1" y="-724.5" width="41.95" height="44" as="geometry" />
        </mxCell>
        <mxCell id="ppVQWipgP5uERmSSBe8D-2439" value="" style="edgeStyle=orthogonalEdgeStyle;rounded=0;orthogonalLoop=1;jettySize=auto;html=1;" edge="1" parent="1">
          <mxGeometry relative="1" as="geometry">
            <mxPoint x="1609.5" y="-857.4000000000001" as="sourcePoint" />
            <mxPoint x="1504.6999999999998" y="-812.5" as="targetPoint" />
          </mxGeometry>
        </mxCell>
        <mxCell id="ppVQWipgP5uERmSSBe8D-2440" value="" style="html=1;verticalLabelPosition=bottom;align=center;labelBackgroundColor=#ffffff;verticalAlign=top;strokeWidth=2;strokeColor=#0080F0;shadow=0;dashed=0;shape=mxgraph.ios7.icons.printer;" vertex="1" parent="1">
          <mxGeometry x="1591.5" y="-870.25" width="30" height="25.5" as="geometry" />
        </mxCell>
        <mxCell id="ppVQWipgP5uERmSSBe8D-2441" value="" style="endArrow=classic;startArrow=classic;html=1;rounded=0;" edge="1" parent="1" source="ppVQWipgP5uERmSSBe8D-2436" target="ppVQWipgP5uERmSSBe8D-2404">
          <mxGeometry width="50" height="50" relative="1" as="geometry">
            <mxPoint x="1347.5" y="-844.5" as="sourcePoint" />
            <mxPoint x="1294.5" y="-766.5" as="targetPoint" />
          </mxGeometry>
        </mxCell>
        <mxCell id="ppVQWipgP5uERmSSBe8D-2442" value="" style="endArrow=classic;startArrow=classic;html=1;rounded=0;" edge="1" parent="1" source="ppVQWipgP5uERmSSBe8D-2403" target="ppVQWipgP5uERmSSBe8D-2404">
          <mxGeometry width="50" height="50" relative="1" as="geometry">
            <mxPoint x="1357.5" y="-834.5" as="sourcePoint" />
            <mxPoint x="1304.5" y="-756.5" as="targetPoint" />
          </mxGeometry>
        </mxCell>
        <mxCell id="ppVQWipgP5uERmSSBe8D-2443" value="" style="endArrow=classic;startArrow=classic;html=1;rounded=0;" edge="1" parent="1" source="ppVQWipgP5uERmSSBe8D-2404" target="ppVQWipgP5uERmSSBe8D-2437">
          <mxGeometry width="50" height="50" relative="1" as="geometry">
            <mxPoint x="1367.5" y="-824.5" as="sourcePoint" />
            <mxPoint x="1314.5" y="-746.5" as="targetPoint" />
          </mxGeometry>
        </mxCell>
        <mxCell id="ppVQWipgP5uERmSSBe8D-2444" value="" style="endArrow=classic;startArrow=classic;html=1;rounded=0;" edge="1" parent="1" source="ppVQWipgP5uERmSSBe8D-2438" target="ppVQWipgP5uERmSSBe8D-2404">
          <mxGeometry width="50" height="50" relative="1" as="geometry">
            <mxPoint x="1377.5" y="-814.5" as="sourcePoint" />
            <mxPoint x="1324.5" y="-736.5" as="targetPoint" />
          </mxGeometry>
        </mxCell>
        <mxCell id="ppVQWipgP5uERmSSBe8D-2445" value="" style="endArrow=classic;startArrow=classic;html=1;rounded=0;" edge="1" parent="1" source="ppVQWipgP5uERmSSBe8D-2399" target="ppVQWipgP5uERmSSBe8D-2404">
          <mxGeometry width="50" height="50" relative="1" as="geometry">
            <mxPoint x="1387.5" y="-804.5" as="sourcePoint" />
            <mxPoint x="1334.5" y="-726.5" as="targetPoint" />
          </mxGeometry>
        </mxCell>
        <mxCell id="ppVQWipgP5uERmSSBe8D-2446" value="Switch" style="text;html=1;align=center;verticalAlign=middle;resizable=0;points=[];autosize=1;strokeColor=none;fillColor=none;" vertex="1" parent="1">
          <mxGeometry x="1561.5" y="-814.5" width="60" height="30" as="geometry" />
        </mxCell>
        <mxCell id="ppVQWipgP5uERmSSBe8D-2447" value="Roteador" style="text;html=1;align=center;verticalAlign=middle;resizable=0;points=[];autosize=1;strokeColor=none;fillColor=none;fontStyle=1" vertex="1" parent="1">
          <mxGeometry x="1386.05" y="-914.5" width="70" height="30" as="geometry" />
        </mxCell>
        <mxCell id="ppVQWipgP5uERmSSBe8D-2448" value="Roteador" style="text;html=1;align=center;verticalAlign=middle;resizable=0;points=[];autosize=1;strokeColor=none;fillColor=none;" vertex="1" parent="1">
          <mxGeometry x="959.5" y="-765.5" width="70" height="30" as="geometry" />
        </mxCell>
        <mxCell id="ppVQWipgP5uERmSSBe8D-2449" value="Firewall" style="text;html=1;align=center;verticalAlign=middle;resizable=0;points=[];autosize=1;strokeColor=none;fillColor=none;" vertex="1" parent="1">
          <mxGeometry x="937.5" y="-830.5" width="60" height="30" as="geometry" />
        </mxCell>
        <mxCell id="ppVQWipgP5uERmSSBe8D-2450" value="Firewall" style="text;html=1;align=center;verticalAlign=middle;resizable=0;points=[];autosize=1;strokeColor=none;fillColor=none;" vertex="1" parent="1">
          <mxGeometry x="943.5" y="-961.5" width="60" height="30" as="geometry" />
        </mxCell>
        <mxCell id="ppVQWipgP5uERmSSBe8D-2451" value="" style="edgeStyle=orthogonalEdgeStyle;rounded=0;orthogonalLoop=1;jettySize=auto;html=1;" edge="1" parent="1" source="ppVQWipgP5uERmSSBe8D-2452" target="ppVQWipgP5uERmSSBe8D-2468">
          <mxGeometry relative="1" as="geometry" />
        </mxCell>
        <mxCell id="ppVQWipgP5uERmSSBe8D-2452" value="Firewall" style="text;html=1;align=center;verticalAlign=middle;resizable=0;points=[];autosize=1;strokeColor=none;fillColor=none;" vertex="1" parent="1">
          <mxGeometry x="1097.5" y="-872.5" width="60" height="30" as="geometry" />
        </mxCell>
        <mxCell id="ppVQWipgP5uERmSSBe8D-2453" value="" style="edgeStyle=orthogonalEdgeStyle;rounded=0;orthogonalLoop=1;jettySize=auto;html=1;" edge="1" parent="1" source="ppVQWipgP5uERmSSBe8D-2454" target="ppVQWipgP5uERmSSBe8D-2469">
          <mxGeometry relative="1" as="geometry" />
        </mxCell>
        <mxCell id="ppVQWipgP5uERmSSBe8D-2454" value="Firewall" style="text;html=1;align=center;verticalAlign=middle;resizable=0;points=[];autosize=1;strokeColor=none;fillColor=none;" vertex="1" parent="1">
          <mxGeometry x="1315" y="-854.5" width="60" height="30" as="geometry" />
        </mxCell>
        <mxCell id="ppVQWipgP5uERmSSBe8D-2455" value="smartfone" style="text;html=1;align=center;verticalAlign=middle;resizable=0;points=[];autosize=1;strokeColor=none;fillColor=none;" vertex="1" parent="1">
          <mxGeometry x="1433.5" y="-684.5" width="80" height="30" as="geometry" />
        </mxCell>
        <mxCell id="ppVQWipgP5uERmSSBe8D-2456" value="tablet" style="text;html=1;align=center;verticalAlign=middle;resizable=0;points=[];autosize=1;strokeColor=none;fillColor=none;" vertex="1" parent="1">
          <mxGeometry x="1386.05" y="-684.5" width="50" height="30" as="geometry" />
        </mxCell>
        <mxCell id="ppVQWipgP5uERmSSBe8D-2457" value="PC" style="text;html=1;align=center;verticalAlign=middle;resizable=0;points=[];autosize=1;strokeColor=none;fillColor=none;" vertex="1" parent="1">
          <mxGeometry x="1528.5" y="-680.5" width="40" height="30" as="geometry" />
        </mxCell>
        <mxCell id="ppVQWipgP5uERmSSBe8D-2458" value="smartfone" style="text;html=1;align=center;verticalAlign=middle;resizable=0;points=[];autosize=1;strokeColor=none;fillColor=none;" vertex="1" parent="1">
          <mxGeometry x="906.5" y="-679.5" width="80" height="30" as="geometry" />
        </mxCell>
        <mxCell id="ppVQWipgP5uERmSSBe8D-2459" value="Note&lt;div&gt;book&lt;/div&gt;" style="text;html=1;align=center;verticalAlign=middle;resizable=0;points=[];autosize=1;strokeColor=none;fillColor=none;" vertex="1" parent="1">
          <mxGeometry x="983.5" y="-726.5" width="50" height="40" as="geometry" />
        </mxCell>
        <mxCell id="ppVQWipgP5uERmSSBe8D-2460" value="Note&lt;div&gt;book&lt;/div&gt;" style="text;html=1;align=center;verticalAlign=middle;resizable=0;points=[];autosize=1;strokeColor=none;fillColor=none;" vertex="1" parent="1">
          <mxGeometry x="1608.5" y="-712.1" width="50" height="40" as="geometry" />
        </mxCell>
        <mxCell id="ppVQWipgP5uERmSSBe8D-2461" value="impressora" style="text;html=1;align=center;verticalAlign=middle;resizable=0;points=[];autosize=1;strokeColor=none;fillColor=none;" vertex="1" parent="1">
          <mxGeometry x="1553.5" y="-894.5" width="80" height="30" as="geometry" />
        </mxCell>
        <mxCell id="ppVQWipgP5uERmSSBe8D-2462" value="" style="image;html=1;image=img/lib/clip_art/networking/Router_Icon_128x128.png;fontStyle=1" vertex="1" parent="1">
          <mxGeometry x="1047.5" y="-905.75" width="46.6" height="52.5" as="geometry" />
        </mxCell>
        <mxCell id="ppVQWipgP5uERmSSBe8D-2463" value="Roteador" style="text;html=1;align=center;verticalAlign=middle;resizable=0;points=[];autosize=1;strokeColor=none;fillColor=none;fontStyle=1" vertex="1" parent="1">
          <mxGeometry x="1035.8" y="-918" width="70" height="30" as="geometry" />
        </mxCell>
        <mxCell id="ppVQWipgP5uERmSSBe8D-2464" value="" style="edgeStyle=orthogonalEdgeStyle;rounded=0;orthogonalLoop=1;jettySize=auto;html=1;" edge="1" parent="1" source="ppVQWipgP5uERmSSBe8D-2465" target="ppVQWipgP5uERmSSBe8D-2404">
          <mxGeometry relative="1" as="geometry" />
        </mxCell>
        <UserObject label="" link="192.168.0.2-254" id="ppVQWipgP5uERmSSBe8D-2465">
          <mxCell style="sketch=0;aspect=fixed;pointerEvents=1;shadow=0;dashed=0;html=1;strokeColor=none;labelPosition=center;verticalLabelPosition=bottom;verticalAlign=top;align=center;fillColor=#00188D;shape=mxgraph.mscae.enterprise.server_generic" vertex="1" parent="1">
            <mxGeometry x="1608.5" y="-981.5" width="24" height="50" as="geometry" />
          </mxCell>
        </UserObject>
        <mxCell id="ppVQWipgP5uERmSSBe8D-2466" value="Sevirdor de app" style="text;html=1;align=center;verticalAlign=middle;resizable=0;points=[];autosize=1;strokeColor=none;fillColor=none;" vertex="1" parent="1">
          <mxGeometry x="1565.5" y="-1011.5" width="110" height="30" as="geometry" />
        </mxCell>
        <mxCell id="ppVQWipgP5uERmSSBe8D-2467" value="Intranet" style="text;html=1;align=center;verticalAlign=middle;resizable=0;points=[];autosize=1;strokeColor=none;fillColor=none;" vertex="1" parent="1">
          <mxGeometry x="1493.5" y="-1054.5" width="60" height="30" as="geometry" />
        </mxCell>
        <mxCell id="ppVQWipgP5uERmSSBe8D-2468" value="Liberação da porta 443&amp;nbsp;&lt;br&gt;Liberação da porta 80&lt;div&gt;Liberação do meil server&lt;/div&gt;" style="text;html=1;align=center;verticalAlign=middle;resizable=0;points=[];autosize=1;strokeColor=none;fillColor=none;" vertex="1" parent="1">
          <mxGeometry x="1018.5" y="-1008.5" width="150" height="60" as="geometry" />
        </mxCell>
        <mxCell id="ppVQWipgP5uERmSSBe8D-2469" value="Liberação da porta 22" style="text;html=1;align=center;verticalAlign=middle;resizable=0;points=[];autosize=1;strokeColor=none;fillColor=none;" vertex="1" parent="1">
          <mxGeometry x="1249.05" y="-967.5" width="140" height="30" as="geometry" />
        </mxCell>
        <mxCell id="ppVQWipgP5uERmSSBe8D-2470" value="" style="rounded=1;whiteSpace=wrap;html=1;fillColor=none;dashed=1;" vertex="1" parent="1">
          <mxGeometry x="1334.1" y="-459.5" width="102.57" height="320" as="geometry" />
        </mxCell>
        <mxCell id="ppVQWipgP5uERmSSBe8D-2471" value="" style="rounded=1;whiteSpace=wrap;html=1;fillColor=none;dashed=1;" vertex="1" parent="1">
          <mxGeometry x="1213.1399999999999" y="-459.5" width="102.57" height="320" as="geometry" />
        </mxCell>
        <mxCell id="ppVQWipgP5uERmSSBe8D-2472" value="" style="rounded=1;whiteSpace=wrap;html=1;fillColor=none;dashed=1;" vertex="1" parent="1">
          <mxGeometry x="1195.8600000000001" y="-260" width="250" height="90" as="geometry" />
        </mxCell>
        <mxCell id="ppVQWipgP5uERmSSBe8D-2473" value="" style="rounded=1;whiteSpace=wrap;html=1;fillColor=none;dashed=1;" vertex="1" parent="1">
          <mxGeometry x="1198.43" y="-450.5" width="250" height="90" as="geometry" />
        </mxCell>
        <mxCell id="ppVQWipgP5uERmSSBe8D-2474" value="" style="rounded=1;whiteSpace=wrap;html=1;fillColor=none;dashed=1;" vertex="1" parent="1">
          <mxGeometry x="1195.8600000000001" y="-356.5" width="250" height="90" as="geometry" />
        </mxCell>
        <mxCell id="ppVQWipgP5uERmSSBe8D-2475" style="edgeStyle=orthogonalEdgeStyle;rounded=0;orthogonalLoop=1;jettySize=auto;html=1;exitX=0;exitY=1;exitDx=0;exitDy=0;exitPerimeter=0;" edge="1" parent="1" source="ppVQWipgP5uERmSSBe8D-2476">
          <mxGeometry relative="1" as="geometry">
            <mxPoint x="1198.43" y="-214.5" as="targetPoint" />
            <Array as="points">
              <mxPoint x="1198.43" y="-506.5" />
              <mxPoint x="1198.43" y="-476.5" />
              <mxPoint x="1158.43" y="-476.5" />
              <mxPoint x="1158.43" y="-214.5" />
            </Array>
          </mxGeometry>
        </mxCell>
        <mxCell id="ppVQWipgP5uERmSSBe8D-2476" value="" style="shape=mxgraph.cisco.misc.ace;sketch=0;html=1;pointerEvents=1;dashed=0;fillColor=#036897;strokeColor=#ffffff;strokeWidth=2;verticalLabelPosition=bottom;verticalAlign=top;align=center;outlineConnect=0;" vertex="1" parent="1">
          <mxGeometry x="1197.37" y="-570.5" width="90" height="64" as="geometry" />
        </mxCell>
        <mxCell id="ppVQWipgP5uERmSSBe8D-2477" value="" style="shape=mxgraph.cisco.servers.storage_server;sketch=0;html=1;pointerEvents=1;dashed=0;fillColor=#036897;strokeColor=#ffffff;strokeWidth=2;verticalLabelPosition=bottom;verticalAlign=top;align=center;outlineConnect=0;" vertex="1" parent="1">
          <mxGeometry x="1356.43" y="-443.79999999999995" width="54" height="83" as="geometry" />
        </mxCell>
        <mxCell id="ppVQWipgP5uERmSSBe8D-2478" value="" style="edgeStyle=none;curved=1;rounded=0;orthogonalLoop=1;jettySize=auto;html=1;fontSize=12;startSize=8;endSize=8;exitX=1;exitY=0.5;exitDx=0;exitDy=0;exitPerimeter=0;startArrow=classic;startFill=1;" edge="1" parent="1" source="ppVQWipgP5uERmSSBe8D-2484" target="ppVQWipgP5uERmSSBe8D-2477">
          <mxGeometry relative="1" as="geometry">
            <mxPoint x="1287.3700000000001" y="-440.69298092959207" as="sourcePoint" />
          </mxGeometry>
        </mxCell>
        <mxCell id="ppVQWipgP5uERmSSBe8D-2479" value="Cluster ElasticSearch" style="pointerEvents=1;shadow=0;dashed=0;html=1;strokeColor=none;fillColor=#4495D1;labelPosition=center;verticalLabelPosition=bottom;verticalAlign=top;align=center;outlineConnect=0;shape=mxgraph.veeam.cluster;" vertex="1" parent="1">
          <mxGeometry x="1007.5" y="-339.5999999999999" width="102.8" height="49.2" as="geometry" />
        </mxCell>
        <mxCell id="ppVQWipgP5uERmSSBe8D-2480" value="" style="shape=mxgraph.cisco.servers.storage_server;sketch=0;html=1;pointerEvents=1;dashed=0;fillColor=#036897;strokeColor=#ffffff;strokeWidth=2;verticalLabelPosition=bottom;verticalAlign=top;align=center;outlineConnect=0;" vertex="1" parent="1">
          <mxGeometry x="1354.01" y="-353" width="54" height="83" as="geometry" />
        </mxCell>
        <mxCell id="ppVQWipgP5uERmSSBe8D-2481" value="" style="shape=mxgraph.cisco.servers.storage_server;sketch=0;html=1;pointerEvents=1;dashed=0;fillColor=#036897;strokeColor=#ffffff;strokeWidth=2;verticalLabelPosition=bottom;verticalAlign=top;align=center;outlineConnect=0;" vertex="1" parent="1">
          <mxGeometry x="1354.01" y="-256.5" width="54" height="83" as="geometry" />
        </mxCell>
        <mxCell id="ppVQWipgP5uERmSSBe8D-2482" value="" style="shape=mxgraph.cisco.computers_and_peripherals.ibm_mainframe;sketch=0;html=1;pointerEvents=1;dashed=0;fillColor=#036897;strokeColor=#ffffff;strokeWidth=2;verticalLabelPosition=bottom;verticalAlign=top;align=center;outlineConnect=0;" vertex="1" parent="1">
          <mxGeometry x="1234.43" y="-250" width="50" height="70" as="geometry" />
        </mxCell>
        <mxCell id="ppVQWipgP5uERmSSBe8D-2483" value="" style="shape=mxgraph.cisco.computers_and_peripherals.ibm_mainframe;sketch=0;html=1;pointerEvents=1;dashed=0;fillColor=#036897;strokeColor=#ffffff;strokeWidth=2;verticalLabelPosition=bottom;verticalAlign=top;align=center;outlineConnect=0;" vertex="1" parent="1">
          <mxGeometry x="1237.37" y="-346.5" width="50" height="70" as="geometry" />
        </mxCell>
        <mxCell id="ppVQWipgP5uERmSSBe8D-2484" value="" style="shape=mxgraph.cisco.computers_and_peripherals.ibm_mainframe;sketch=0;html=1;pointerEvents=1;dashed=0;fillColor=#036897;strokeColor=#ffffff;strokeWidth=2;verticalLabelPosition=bottom;verticalAlign=top;align=center;outlineConnect=0;" vertex="1" parent="1">
          <mxGeometry x="1239.43" y="-437.29999999999995" width="50" height="70" as="geometry" />
        </mxCell>
        <mxCell id="ppVQWipgP5uERmSSBe8D-2485" value="" style="endArrow=classic;html=1;rounded=0;" edge="1" parent="1">
          <mxGeometry width="50" height="50" relative="1" as="geometry">
            <mxPoint x="1158.43" y="-398.5" as="sourcePoint" />
            <mxPoint x="1198.43" y="-398.5" as="targetPoint" />
          </mxGeometry>
        </mxCell>
        <mxCell id="ppVQWipgP5uERmSSBe8D-2486" value="" style="endArrow=classic;html=1;rounded=0;entryX=0.01;entryY=0.734;entryDx=0;entryDy=0;entryPerimeter=0;" edge="1" parent="1" target="ppVQWipgP5uERmSSBe8D-2474">
          <mxGeometry width="50" height="50" relative="1" as="geometry">
            <mxPoint x="1156.37" y="-290.4000000000001" as="sourcePoint" />
            <mxPoint x="1237.37" y="-290.2000000000003" as="targetPoint" />
          </mxGeometry>
        </mxCell>
        <mxCell id="ppVQWipgP5uERmSSBe8D-2487" value="" style="endArrow=classic;startArrow=classic;html=1;rounded=0;fillColor=#f8cecc;strokeColor=#b85450;entryX=0;entryY=0.5;entryDx=0;entryDy=0;entryPerimeter=0;" edge="1" parent="1" source="ppVQWipgP5uERmSSBe8D-2479" target="ppVQWipgP5uERmSSBe8D-2483">
          <mxGeometry width="50" height="50" relative="1" as="geometry">
            <mxPoint x="1021.75" y="-173.5" as="sourcePoint" />
            <mxPoint x="1071.75" y="-223.5" as="targetPoint" />
          </mxGeometry>
        </mxCell>
        <mxCell id="ppVQWipgP5uERmSSBe8D-2488" value="" style="endArrow=classic;html=1;rounded=0;fillColor=#f8cecc;strokeColor=#b85450;" edge="1" parent="1" target="ppVQWipgP5uERmSSBe8D-2484">
          <mxGeometry width="50" height="50" relative="1" as="geometry">
            <mxPoint x="1178.43" y="-416.5" as="sourcePoint" />
            <mxPoint x="1103.43" y="-206.5" as="targetPoint" />
          </mxGeometry>
        </mxCell>
        <mxCell id="ppVQWipgP5uERmSSBe8D-2489" value="" style="endArrow=classic;html=1;rounded=0;fillColor=#f8cecc;strokeColor=#b85450;" edge="1" parent="1" target="ppVQWipgP5uERmSSBe8D-2482">
          <mxGeometry width="50" height="50" relative="1" as="geometry">
            <mxPoint x="1178.43" y="-226.5" as="sourcePoint" />
            <mxPoint x="1097.92" y="-170" as="targetPoint" />
          </mxGeometry>
        </mxCell>
        <mxCell id="ppVQWipgP5uERmSSBe8D-2490" value="" style="endArrow=none;html=1;rounded=0;fillColor=#f8cecc;strokeColor=#b85450;" edge="1" parent="1">
          <mxGeometry width="50" height="50" relative="1" as="geometry">
            <mxPoint x="1178.43" y="-226.5" as="sourcePoint" />
            <mxPoint x="1178.43" y="-416.5" as="targetPoint" />
          </mxGeometry>
        </mxCell>
        <mxCell id="ppVQWipgP5uERmSSBe8D-2491" value="" style="edgeStyle=none;curved=1;rounded=0;orthogonalLoop=1;jettySize=auto;html=1;fontSize=12;startSize=8;endSize=8;exitX=1;exitY=0.5;exitDx=0;exitDy=0;exitPerimeter=0;startArrow=classic;startFill=1;" edge="1" parent="1">
          <mxGeometry relative="1" as="geometry">
            <mxPoint x="1287.37" y="-312" as="sourcePoint" />
            <mxPoint x="1354.3700000000001" y="-312" as="targetPoint" />
          </mxGeometry>
        </mxCell>
        <mxCell id="ppVQWipgP5uERmSSBe8D-2492" value="" style="edgeStyle=none;curved=1;rounded=0;orthogonalLoop=1;jettySize=auto;html=1;fontSize=12;startSize=8;endSize=8;exitX=1;exitY=0.5;exitDx=0;exitDy=0;exitPerimeter=0;startArrow=classic;startFill=1;" edge="1" parent="1">
          <mxGeometry relative="1" as="geometry">
            <mxPoint x="1289.93" y="-222" as="sourcePoint" />
            <mxPoint x="1356.93" y="-222" as="targetPoint" />
          </mxGeometry>
        </mxCell>
        <mxCell id="ppVQWipgP5uERmSSBe8D-2493" value="Cluster&amp;nbsp;&lt;div&gt;GrayLog&lt;/div&gt;" style="text;html=1;align=center;verticalAlign=middle;resizable=0;points=[];autosize=1;strokeColor=none;fillColor=none;" vertex="1" parent="1">
          <mxGeometry x="1233.43" y="-496.5" width="70" height="40" as="geometry" />
        </mxCell>
        <mxCell id="ppVQWipgP5uERmSSBe8D-2494" value="MongoDB&lt;div&gt;Replica Set&lt;/div&gt;" style="text;html=1;align=center;verticalAlign=middle;resizable=0;points=[];autosize=1;strokeColor=none;fillColor=none;" vertex="1" parent="1">
          <mxGeometry x="1346.01" y="-496.5" width="80" height="40" as="geometry" />
        </mxCell>
        <mxCell id="ppVQWipgP5uERmSSBe8D-2495" value="TCP:&lt;div&gt;5044&lt;/div&gt;&lt;div&gt;5414&lt;/div&gt;&lt;div&gt;9000&lt;/div&gt;" style="text;html=1;align=center;verticalAlign=middle;resizable=0;points=[];autosize=1;strokeColor=none;fillColor=none;" vertex="1" parent="1">
          <mxGeometry x="1109.93" y="-486.5" width="50" height="70" as="geometry" />
        </mxCell>
        <mxCell id="ppVQWipgP5uERmSSBe8D-2496" value="HIDS" style="text;html=1;align=center;verticalAlign=middle;resizable=0;points=[];autosize=1;strokeColor=none;fillColor=none;" vertex="1" parent="1">
          <mxGeometry x="1187.37" y="-812.5" width="50" height="30" as="geometry" />
        </mxCell>
        <mxCell id="ppVQWipgP5uERmSSBe8D-2497" value="HIDS" style="text;html=1;align=center;verticalAlign=middle;resizable=0;points=[];autosize=1;strokeColor=none;fillColor=none;" vertex="1" parent="1">
          <mxGeometry x="1177.5" y="-1014.15" width="50" height="30" as="geometry" />
        </mxCell>
        <mxCell id="ppVQWipgP5uERmSSBe8D-2498" value="HIDS" style="text;html=1;align=center;verticalAlign=middle;resizable=0;points=[];autosize=1;strokeColor=none;fillColor=none;" vertex="1" parent="1">
          <mxGeometry x="1595.5" y="-927.5" width="50" height="30" as="geometry" />
        </mxCell>
        <mxCell id="ppVQWipgP5uERmSSBe8D-2499" value="IDS" style="text;html=1;align=center;verticalAlign=middle;resizable=0;points=[];autosize=1;strokeColor=none;fillColor=none;" vertex="1" parent="1">
          <mxGeometry x="1349.05" y="-875.25" width="40" height="30" as="geometry" />
        </mxCell>
        <mxCell id="ppVQWipgP5uERmSSBe8D-2500" value="IDS" style="text;html=1;align=center;verticalAlign=middle;resizable=0;points=[];autosize=1;strokeColor=none;fillColor=none;" vertex="1" parent="1">
          <mxGeometry x="1018.5" y="-879.75" width="40" height="30" as="geometry" />
        </mxCell>
        <mxCell id="ppVQWipgP5uERmSSBe8D-2501" value="" style="endArrow=classic;html=1;rounded=0;entryX=1;entryY=0;entryDx=0;entryDy=0;entryPerimeter=0;exitX=0.479;exitY=1.024;exitDx=0;exitDy=0;exitPerimeter=0;" edge="1" parent="1" source="ppVQWipgP5uERmSSBe8D-2499" target="ppVQWipgP5uERmSSBe8D-2476">
          <mxGeometry width="50" height="50" relative="1" as="geometry">
            <mxPoint x="1257.5" y="-690.5" as="sourcePoint" />
            <mxPoint x="1307.5" y="-740.5" as="targetPoint" />
          </mxGeometry>
        </mxCell>
        <mxCell id="ppVQWipgP5uERmSSBe8D-2502" value="" style="endArrow=classic;html=1;rounded=0;entryX=0.085;entryY=0.08;entryDx=0;entryDy=0;entryPerimeter=0;exitX=0.721;exitY=0.888;exitDx=0;exitDy=0;exitPerimeter=0;" edge="1" parent="1" source="ppVQWipgP5uERmSSBe8D-2500" target="ppVQWipgP5uERmSSBe8D-2476">
          <mxGeometry width="50" height="50" relative="1" as="geometry">
            <mxPoint x="1374.5" y="-835.5" as="sourcePoint" />
            <mxPoint x="1297.5" y="-560.5" as="targetPoint" />
          </mxGeometry>
        </mxCell>
        <mxCell id="ppVQWipgP5uERmSSBe8D-2503" value="" style="endArrow=classic;html=1;rounded=0;exitX=1;exitY=1;exitDx=0;exitDy=0;entryX=0.5;entryY=0;entryDx=0;entryDy=0;entryPerimeter=0;" edge="1" parent="1" source="ppVQWipgP5uERmSSBe8D-2462" target="ppVQWipgP5uERmSSBe8D-2476">
          <mxGeometry width="50" height="50" relative="1" as="geometry">
            <mxPoint x="1057.5" y="-843.5" as="sourcePoint" />
            <mxPoint x="1227.5" y="-580.5" as="targetPoint" />
          </mxGeometry>
        </mxCell>
        <mxCell id="ppVQWipgP5uERmSSBe8D-2504" value="" style="endArrow=classic;html=1;rounded=0;entryX=0.5;entryY=0;entryDx=0;entryDy=0;entryPerimeter=0;exitX=0.25;exitY=1;exitDx=0;exitDy=0;" edge="1" parent="1" source="ppVQWipgP5uERmSSBe8D-2399" target="ppVQWipgP5uERmSSBe8D-2476">
          <mxGeometry width="50" height="50" relative="1" as="geometry">
            <mxPoint x="1067.5" y="-833.5" as="sourcePoint" />
            <mxPoint x="1225.5" y="-545.5" as="targetPoint" />
          </mxGeometry>
        </mxCell>
        <mxCell id="ppVQWipgP5uERmSSBe8D-2506" value="Servidor de email" style="text;html=1;align=center;verticalAlign=middle;resizable=0;points=[];autosize=1;strokeColor=none;fillColor=none;" vertex="1" parent="1">
          <mxGeometry x="365" y="-684" width="120" height="30" as="geometry" />
        </mxCell>
        <mxCell id="ppVQWipgP5uERmSSBe8D-2507" value="Servidor Web" style="text;html=1;align=center;verticalAlign=middle;resizable=0;points=[];autosize=1;strokeColor=none;fillColor=none;" vertex="1" parent="1">
          <mxGeometry x="366" y="-633" width="100" height="30" as="geometry" />
        </mxCell>
        <mxCell id="ppVQWipgP5uERmSSBe8D-2508" value="Flie Server" style="text;html=1;align=center;verticalAlign=middle;resizable=0;points=[];autosize=1;strokeColor=none;fillColor=none;" vertex="1" parent="1">
          <mxGeometry x="695" y="-742.1" width="80" height="30" as="geometry" />
        </mxCell>
        <mxCell id="ppVQWipgP5uERmSSBe8D-2509" value="A.D" style="text;html=1;align=center;verticalAlign=middle;resizable=0;points=[];autosize=1;strokeColor=none;fillColor=none;" vertex="1" parent="1">
          <mxGeometry x="739.58" y="-591.5" width="40" height="30" as="geometry" />
        </mxCell>
        <mxCell id="ppVQWipgP5uERmSSBe8D-2510" value="SGDB" style="text;html=1;align=center;verticalAlign=middle;resizable=0;points=[];autosize=1;strokeColor=none;fillColor=none;" vertex="1" parent="1">
          <mxGeometry x="699" y="-510" width="60" height="30" as="geometry" />
        </mxCell>
        <mxCell id="ppVQWipgP5uERmSSBe8D-2511" value="Estações" style="text;html=1;align=center;verticalAlign=middle;resizable=0;points=[];autosize=1;strokeColor=none;fillColor=none;" vertex="1" parent="1">
          <mxGeometry x="681.5799999999999" y="-443.8" width="70" height="30" as="geometry" />
        </mxCell>
        <mxCell id="ppVQWipgP5uERmSSBe8D-2512" value="IIS/Jboss" style="text;html=1;align=center;verticalAlign=middle;resizable=0;points=[];autosize=1;strokeColor=none;fillColor=none;" vertex="1" parent="1">
          <mxGeometry x="733" y="-655.5" width="70" height="30" as="geometry" />
        </mxCell>
      </root>
    </mxGraphModel>
  </diagram>
</mxfile>
